<mxfile host="65bd71144e">
    <diagram id="S-YwrV6Yoy_IMQvkYHo5" name="第 1 页">
        <mxGraphModel dx="2939" dy="2393" grid="1" gridSize="10" guides="1" tooltips="1" connect="1" arrows="1" fold="1" page="1" pageScale="1" pageWidth="827" pageHeight="1169" math="0" shadow="0">
            <root>
                <mxCell id="0"/>
                <mxCell id="1" parent="0"/>
                <mxCell id="2" value="" style="shape=image;verticalLabelPosition=bottom;labelBackgroundColor=default;verticalAlign=top;aspect=fixed;imageAspect=0;image=data:image/png,iVBORw0KGgoAAAANSUhEUgAAA10AAAOBCAYAAAAKh8oLAAAgAElEQVR4nOzdfXxU9Z33/1dc69qZidwlGRUIJgQqBQKhcqelCQaQtKzrtcqqrDfAroq79Lqsd0Vd3Efl8qZSb3brY1G7l1q13iy4Py8vt6ASIcWKgBsgiFoMiQlgzQ23mRmtsub3x5mbM5O5OTNzZjJJ3s8+Uplzvud7vnNm5sz5nM/3+5288ysv6j5+7BgnT54kfW7GX1iBo/kddjR7YpYqmDif7zo+4f1t+/HZsFcJ+cGF8/nd2xt6LAOiLv/d2xuibhOrrsjlsepOVEcy7YhXl5X6Uymb6jaB4xGQ7P7Mddj1ekl64h3vRKy8Hn3t9Yxsl53v18hzS+R+0vn896ZMv4fSlcq518596ZwnkoO6u+kO+3c33d2Rf9/Q/Y3x3++UFQc3bfz0s4w06eRXX2ak3mzJu6Bqvn1BV+EUKsthb209nTELuRlfPQUa1rO3I/1dioiIiIiIjRIGXaGAq7u7m7GjRwY3VdAV3am21tZRT11tokJt7K1db+tuRUREREQkS7oTF5Fw9gZdItKnveo5wHe6/6STqWTVgVO+xV+4ivkTeb3dFBERkYxQ0CUiADzt+4zjp5zCtX8+nO1/9u3ebo4MEMO/+Zp/+Ooo67wH+AtnceINRERE+qBTersBIpIbZpz0cf/pBQq4JKsOnfItfnZ6IWX//XVvN0VERCRjFHSJSNDHp/x5bzdBBiCjW6H6tIqISG5bfO3V/PtLz7PgRz9Melt1LxQRy77trujtJvS6L9p29nYTRERE+qw/+7NTOPc7Y/n4D/v47//+prebkzXKdImIiIiISFZMqZjMPyy7jr9dfDV/9me5G4osvvZqfvPc00yeVB5c9syvn+Ovr7iK1//zt0nXl7vPVERERERE+pUd79fz0tr/oGLypJwPvOyk7oUiIiIiIpI1v9vyewCu/OtL+dvF8H+eec7WroZ3rLiNaVPPCz5uam7mlltXBB8/9IsHANizZy9/efECAL7++muefe4FXv/P3/LQLx6gtKQEgH+6+y58Ph+rf/EIkydPYu6cC1n9i0fYtbsBgMmTyrnt1p/gcDh61ANGxmzunAszGXRNYdjKqxieH1pyeP3NHNqUuT2mL9Tm3G9rL5hewpLFZZyofYtX1iWx3bV/5KMFsG7hWazMWOMGutNZsfi7jG3+kKV1ffsX2+OZMSWPZWOAz7tZXNfbrekNM7l75o2c5wS8u3lo60MEDsPSic9yiRughVc3ruSpqNt/zdNP7aaw7jwW/NquNhl1zsgHukp5cOlQnrarahER6bfMgdfVf3OS537zoi2B10O/eIAz3W5+ds+97NrdQPHIEfzjXSt48vHH+N/3PkDrgYMAwaDqf1x6OWAEatdcvQiAW25dEQyWwgKsyZPC9rXgRz/kmqsXsXPXbu5/YDVgBFl/u/RaCgqG8cyvnwPA4XBkrnuha/lVDOcjPr79Zhr8f70XxExh2MqHKV9+cW81oPdNL2HJmrlcelmW9/uDI2xbcIj9ryvgyqiiwYw9AzoO99GAqzSPZy7P44rebkeOWzrxRs5jNw9tvIaLTQEXwFN7ruHijdfwatsoLpl5C5VRa/gWS+qGM3rB+7x+rT1tWrV6NzMo5cGF5zFOAZeIiCThd1t+z7O/eYmp51Vw9d9cmXZXwwU/+iFnut28+NLaYKDUeuAgr/2/3+J0OikvD43P6ujo4J//+bHg49/85kWOHTvGxInjLe9v9uwfcODgwWDABca4r6bm5rB6vv7660wFXRczqBgOv/MrvsrMDjKknsOrejtA7E88vP7jJnh/ko131SWqIgdOvuRoe283JDUzBgPebj5NUO69+m4WvzxQs1xXUu6Gpv3hwVakp5p243WOodIZo8Cvz+LB94cwesEfWZV2mzxUnAP76xRsiYhIara+t531b2xk6vcm891x56ZVV0HBMLxeLw0NDWHLGxoa8Hq9FBQMCy7r8niCWS8wgrMujyesTDzFI0eQ73KxZ8/eHuv27NlLvstF8cgRQCaDrjFu9POqsmr1x4zuKuXxn3+rt5vS731/2OnAlxzqo0HX+WcDXfBebzdkgHj658W813WIy1Z7erspIiIywM2cMY2ai+bw0cf7+PCjj3u7ORnTCxNp+MdNHd1Mw2OvBZe6lj9M6ZCP+HiVkR1zLX+YUjbTsHcM5TXD/aW+4NCv7uLwJxFVzr7FVAZ89c/T+FI9jLmOsuvG4QisyK+i/MGqYLnQuK3I8Wcx9gOcdsW9nDvFFFK2RnkeVtsdUxGXrpkEUcdOOZm9+nzOaXqXp9d4jdI3ns+ictNtbU8jL9zWTHuUdYOq53JTdeBRO2/duJuw+PyySdxUXRR8eLwhtB+DlyMHjDZMcsUqA8E74K/HvwN+9SVTWFBsXnKM1/+liefMiyaU8vKFg0OPT3zGL5/5nHf8D79f+V1+POnL8O2KzuSpK4ay76UPeaAdYDA//5+l8HY9P8Vc35fsDJYJMMqeE69NRWfy1BVn44xXxlbx21Qy5HQ4cYTmsHZltk1XVOYx/8zQY98n3fx9fejxzQvyKPusm78/lsczU0PLN7zczUtgdCk0LceZxzOXhx627Ojmn5qMf//s8jxGRVke6eYFeZg/CmFlh8K/zs2j8a1uPptoaru3m8dfjwj4ItuWYL99j9HN8KMFbTz9AxdLftfb7RERkYFo5oxpXLXor/nooz+w5sn/k/aYrs7Ow8FuhOYsVnl5OU6nk87OwzG3nTypnDPdbt7a+LalfQUyY9G6I06cOL5HJs3GoKvnxBmOmocZVuN/0BUKqCwrrqJ8yEd8fPtDfBWo/4rr6DLVEwiCzBNfnHbFLQwbU8/hT35F4+2mtkUEeiH1HF5Vz2HwB3BDozbHtfxhSosP0XT7Qxj3hy9m+INVlK90hz83C+224oxCJxAZzDgZ6oITHf7ll03iR+zm0RsD5YyAbdFdXh69t532Ne/yKFiaBCMQoB0wlSm6cRKzp+9m07bQ/ictPp8DtW/x6Dr8Qdr5XHpZRL3XdjGaIbzXHOvZGRM/VPAZv/yXUAAVyQjKvmTnS/VhwdOPL/mSd149BpgCDtN23x83FKc581N0OoV8SUfZd3l58BF++S9NvBNow/mDwV+XEcCdzqdv13P5B/5tJ5TyVOXpPOefoMIog6lN/nYuPpPmZ2I/l1QlbtPpDB8MXoby4yu+5PV/qec5/3NbcMlgnvM/Nzv97PI8Rnm7efxlf7BSmsczU/P42bFQYDLICR35eTwzJhRo3bwgj/mV8FId0NTN4iaCwVBHjKDmiso8Pnq5m3/yb18+Eogs56/D8Xk3i183Fs2YkseyqXncfKybh48Ag/NwAIMm5lFON4tfDm1XU9rNe02m7cZAw1v+7fqrX+ezf8EhCksABV0iIpJlM2dM45q/uYI/7PvEloAL4PX//C2zZ/+AK69YyMGDB4MTaVz8Fz/k87a2sN/XKi0p4Y4VtwXHY13tn0Rj167dAMEAbcSIEcHxYZE2bfod11y9KKyexddezcgRI3j2uRfCytoYdJkCF3+G6Yt0ZwAMC9Tq6frkUphyBqeBsWzMdRRP+Ta++ufD9vPVSw8RO45N0ZjrOLMYDq8PBFwAr3Fo/RiG1ZxD/hhCmaxE7U7IyxEPnOF/VHTj+Swq/aORvZru5Ay8fHrAv3Ld7ohMUjsfH4SRg50UAZZ7m00v4UflTo43vBsWPLWv2d2jDnNQxro/cqC6qEeAuORMH3QN4XcxL+ZOZ8gZ4N19LHaQMqHUH3CZM1HH+H+7v+THk4ZyNcd4LhBwNIfX0yMQK3Lg5HScg8OzZGGKzmSpP7j56Qem5R80sTSsDBFtGsyEYqD1S9sDLktt8h9LJ+Zs35ccOgYVg0/n+2Bru66o9Adc5uxQUzcN3zUFREOhEHCcacpsAZ91QXk+zMC0rT8Y+ihGFumluu6Ebbr5fH/AZRrs9F59NzVj8ig7BzjiHzcGjMJU7gh0RNR1Tj7g7ebdtAKuQp6smkBx1HU+dm3fxgpfklUWfZdSWng10Yfa+y4feSdxXumVsOfFOAX/nI4umDHBA7iSbIzftV2MZjjrNGZTRESSYA64fvmvT9g6Xfwtt67goV88wD/dfVdw2fYd74dNdgHGNPIFBcP4/155GSA4LXwgwAoEcH+79FquvGIhq3/xSI99BYK4a65eFFbPffc/2CNQ69u/0zXiDBx8waH/qk9c1pZ9HeLzyCBy0yccrqni9BGA5e6DiXhpPwaThhr9pMaXOsF1FuOnN/sDIC/tpsyTuatfULJDNUaewSC87K6PzKylprTgKDAkToljfNAKCyZ9l5cn0TOoAK4uGwytTRFd/yJEnbWvZyAWGPO087fmgOtLHngm9N65+vyzcZ74jKci2mFmZNBOp+KKKbxsWu7d/SGXZ2CqdittYsJQzgE+fTuT3RtDxp0JLTusjb9q2REKuGKxOokGGNmzlg8jFg6FMic0vGuhAqBhj+lBqdFtscGUDHzpAMyfmseyy2FZylPTd3D9Zptm4ylaxWvlo6BtPRdvjBdEBWzlnq1bqSx5nNfm1ODdv4Yrm7fa05aAa//IRwsOwafnMm5higGbiIgMSOUTx3P1osszEnAFmH+TK51yket37W4ITgMf8Pp//jYsgxbpmV8/xzO/fq6PB139WMcRL5Qa2aqhNPJWw1lMm+KEjjMYFCwVCLjCx2aNv2sucwdHrTZrmjqHQILJX557tZ7n8HfNu3AKL19ozmoZ2SPv7p6BTMmQ06H1MyPA8M/at88cmE04m4oz4FNTIGZkvj7jnZgBnBGocSxetup0vl9yOrQ2cXkGuuyl1qZAQHmMD8ICs+gZwLRFCVICzAHRjHOiZ6/OzgffZ+EBm+VJNGLsO7CvzyIzU/5sW+Onpv18Ht5lMJD9Cts20O3R32Xymct7jlfLqvaVXLwRI/ia8zjvb13GPXHvjVzJo3NqcO9fw8UbEwdbJzr/PPk2/fosxv36LCP4WtvGe78crXFhIiJiyd4PP+LpZ39D/c5dGQm4clXGfqcrKw6ewMe3jSxTVvY1nEGzI5bPHsMwvuDLg1G3Sll7cMzWWZzR1M7e+j9CaRHjC53gOeHvEmWM7zre0EjPySqTdOAEx3EydGS6FRme/twB+Uf5wQ8Sl33u1Xou/5cP2XnidMaOOz1+4aIzmV0Mnzb6x2D1mLXvdFacNxjCpk+3Frz0VUZA6Qsb02YEnl+y76Ps/G7XjClGQBQIsgJd9MKyV6XGJBeNESmtQU7wdVnYR7QAKY4rJubhMHUTjLafqO0MaDKmp3/8E3CcbXSJtK6QJ6tmsyHq33QecCSuoYf2D2nCwdBYU8EHOM/GjY+P2hMFXH+iMB86Pk9jdtFf57Ofo8a4MBERGTjyUt/0v//7G3a8Xz+gAi7olaCrnj8dBYa4Oc2/xJigIoWqPvkVn7fCsJp7GTYmtNiYSCPKPovHpDpyAT75L452wbCaW0x1XMzwmuHQui2JmQktOnCC466z+NF0J5/We2FbO59SxrRS4Jg32M3wiAcGma7Cxt81l7nRgtBtXk4AI79TFGUlsK2Z7QdhZPX5zJ4eWmxMpJFC+/0XY9+d+bW18j26CRrdD52TzubqYBn/zHytTT26IhqMySPGHjsWMf2If/zY0XgByJe80/wlFJ/NCtMh+n5lqelx9DKxVXP9fatZdd/dLCyzUj6VNkUJKIvO5KkLB+PdHa1rZpptauqmBSifGFoUmHjC3JWwR0ZrKPzrVCNjFDk5xXEvOPJJ2s8W+MeGfdqND/jBlNC6wMyKDe/62+DPenVEZMmiZd4ipTadvdG9cH7UvxTGc2WCf7KbjpiT3YiIiIhdeqV7oeexzRx+sIpzH3wYMKZ4/7jzUs4dk2DDqHXdzMdX3Mu51z1MYIJ2X/3zNH4SWe55Dq28ilL/PsE8ZbwxC6G5N9zwQH3BKeGNiUL+tPzhsDp89c/T8FIG+h1t83JisZORNLJ3G4CXvU1eJpU7Od4UCCm8bFrXyDmLJ3HTGv+ig7t5oaGMRaWRFbbzyjONLDGXjZgyfu+9b9Fx4/ksWjyXSYuNZccb3uXpbZF1WeFi56dw2XmdrOIsVppX9ZhuHYyp2+vDgoTnXv2Q4Yu/y4L/OYUF/mWfvl3PUlPA9U7dZ/zFpNJgGe/uD1l6+GxeLjZlvyYM5Ry+ZGeCrM87dR9SMmQKC0zjtby7P2Rpe/wyQIwuhy0c7YKR+fmUz6lmbWNt3P2n1ib/hBnFpbz8P0PbRRsjZ1eb/umtbv51bvj07ubJMgJjrBxjjJkLg3uOMTvhw+9G1BdtCneM4OqaMXnMvzyP+RizC74HcAT+fgdGV8AxpjpeTjBZh7+d5kAscsp5MALFxb3VtTBjvubpSmNMlroFiojIQGN1zJed8i6omt99/NgxTp48mfWdS3/n4fW1H1P4/iSmD9QfSK5azqp5o/DsfIKfr23s7dYYYrTpoxONjDsjfvrr2+6KxPX7f+Oqv065/kXbzl7aszFWi4ZruCne5DLOW3hx5hg+ijP2a8lP93P7eQ7WLYy4IZI04zPO6+exIM0ZDK28/0REJEu6u+kO+3c33d0Rf9984//3N4wdHRqf0vjpZxlp0smvsjNkIlP69pguyXEuFrw+nDPO2822n1rsZtivlLFw5iighfdyJeDKQpuSHXslVn3KES+Ujr6FyjilKovG4KSDg7Em27j2j9x+3lH2v55uwAWBaedHVx5hSdp1iYhIbsuL+1Di0+yFklm/PotxwEcLonQz7MdKF97Nkop86NrJ03e+0OO3fHtDttp0Tj7weeKp4iVZW7ln6zk8OqeGW+Y8yy3e3Ty09SECM9ovnfgsl7gBfLy/dSVPRa3D6Fa434bMlOFbLFl6Lq+v/Zjb1zZxe1cpDy4dGvHbgSIi0vflAd3k+f9L8P+z2IK8U+ju7ruTb6h7oYgANnYv7Od6r3th/6buhSIiuaW7OxBWddPd7X/s704Y6GL4Tfc3dH/TzdjRoVncMtW9sLv7G745ebLPBl7KdImIiIiISNLygv+XhX3lncKffeu0xAVzlMZ0iYiIiIhIXMEAKy/P+PMvzXY3w75KQZeIiIiIiITJi/xXZEYrLw/yII88/vTVQJwwLTm2dS8cVlCAxoaJ9G8azyQiIjLwhKbPyPPHXt2hNXlwostH4bBBvdO4PkKZrgQqq2tyqh4RERERkazy9y3s0cUwL4+8vDyOn/BywuPr1SbmOgVdCdTVrrclYIpWjwIxEREREclJeXkxuhjm+f9nHucF7R3H6Dh8HLo1yisazV5oEi8IireurnZ91PLRlouIiIiI9DWhX+rqptuc+eomGJMdP+E1Oh5+Y0zrbsRfCsKgjwVdjpJZTHV/xo739hMzgekYzdSZZ9O2dQutKWQ5kw2UkslWKQgTERERkT4pL8+IovKA7jzjIQQDr+68yMk3QmUNAzv46kPdC92UlLro3B8n4AIKRo/F0b4v6YArlcxUvG0SdUvMvUyYi+IZNVROdMctVTCxhsoZo3FkqVUiIiIi0kvCuhgGZorPM/03NK4r9HdK8L+n5J1C3il5xl/eKQP6r+9kugqHU0AbezviFXLjLoLOhrakq08lAMqtoElERERExGZ5eeR1d4dmL8zrprvb/F9jeVgmK5AVM7Yw1gT7IjIgk159JOhyUTzaja9pC51xSjlKxlLg3ceOuIFZfHZ2FwxkuxSciYiIiEj/EB540Z1n6loYEXxF2db8n4GkbwRdDjdup4e2Nk+cQi4K3C58bW1xux8mko1JMeysr2BiDeOLei73NW1hR7P/eDlGM3Xm2FCXQO++0Li4yHXOKVRWh+rpbFjP3g4346unUBBcOpap1WOj7wugcAqV5aZuiu311O1pi1gPe2v34ZgxixJnjHIiIiIi0vvCsl1gDryMn+qKDL6MMiEDMLUVoU8EXQWjx+Lw7qMzXjRVOJYSp4fmuIFZ9mUy22UEXG3sra03MoD+AApzEFQ4hcpyJ81b1wfHuRVMrGHqDIzAy7efHbX7McZ0zaLEGy3waWOvv/0FE2sY79wXczITR8ksppZ62Vu73p+VNOqtnBhZr5vx1Ub2sq7Z42/7FMYXrk/QhVREREREsi5q4AV0d9ONKfgiLzixhqkkAz3w6gMTafjHaSWaQONMN6QwgUY0dv9+lnlSDfsCMBcOJ9B+KNTl0tdGmxccLmewjNEtc2fYcencvw+f82wKbJ8Nwz/ZSUO9qRuoh9b9bVA03JQp87ejYX0oOPR58AEOl8vuRomIiIiIHfJMv89lXpZnBGDBtT0m1yDi8cD7y/lMl6NkbOIJNByjKUlxAg2rogViyQRP9me8PPi8+IOZNn+my43bCZ37A8fBSb4THKWzqCztWUO+E9LqixnJ4cIBOMprqIzSXofDvD8PXV7z+lA2TURERERyVJ5/9JZ/ogxz5otg98LICTOiD+IaSLmvHA+6/OO0mnbGn0DDfTYO776MdktLN1gKBFx2Bl4+jweK3Iw3BYS+pi09jkOPMVcZZowDy9ruRERERCTb/DMURv8VLmsTZgyk+TRyO+jK4gQamWQOtOwLvAJd+eIFOF66vFDgcgJZCLrMXQQ7cmtsnViRx5/TzZ8G1ClQREREUpYXMW1Gdyj0GkhZLCtyekyXpR86LhxLibONZpsyOeaMlJ31mdlZf/wxUIHxVFOYWpJorJS5u2JsPo8HYo4Ha6O5yYOjdBbjCxO1XHKNJy+Pf/jTkd5uhgxA/+OrE3yZl9NfRyIiYoX/x5KDY7pAf4G/C6rmdx8/doyTJ0+mdYyHFRRgRz0hxjTlJOiqVjCxhvHYM9V4ZIBkNTCKNc18rHXJlIkrcmr2AG/E7ILRykWWAYIzGDpDS6Jl0iKnqY/svmjMYBgR5Jmngw/OqLjFlolPxB753d+w3tvKsO6Tuj0l2ZMHnu5TuMQ1kkOnfKu3WyMiIpIRORt0haYer489nss/RbrPhjFEdo21SiWQSin4ivXco00bLyIiIiIivSZHx3RlfwINuya3SKWelPbtHETYZIARyzs9CrhERERERHJBzma6JLGo3fjwqNueiIiIiEgOydFMl1jha95CXXNvt0JEREREROLRdFEiIiIiIiIZpKBLREREREQkgxR0iYiIiIiIZJCCLhERERERkQxS0CUiIiIiIpJBCrpEREREREQySEGXiIiIiIhIBuXu73TNvoXymuGhx62baXjstd5rj4iIiIiISApyN9O16SEabr+Zhtuf51BX+tW5lj9M+crrOC39qmxSxsI7VrNqWXXcUpXLVrPqjkWUZqlVIiIiIiJir9wNukRERERERPoBBV0iIiIiIiIZlHdB1fzu48eOcfLkybQqGlZQgB319DSFYSuvYvjRWGO6/OvzA4+/4NCv7uLwJwAXM/zBKobFqNlX/zyNL9Un1ZrShXezpCK/54rWDax8vNb4d9kifrq0AldgXddOnr7/BZqirYtw4M3beHJzNdffN5+RMcp4dj7Bz9c2hhZULWfVvFHR2xJcDxvv3EDRHTdQnh+jHACzufmReZTQyus/WcMbMdogIiIiIiLW5O5EGpYYQdW365+nIRA8zb6F8uvuhV/dxeFPXuPQ7a9xCGNMV+mQj/h41a/4KsW9GQEXNDx1G0bM4w+OzMFL1XJWzRtqKmOMy1pyB0bg1fgCP7/zBYwxXTdQfjRa4FPLk3fWBredM8QUtEVt0xE23nkbdRCsd9UyIuodxZz7bsCz8wlWrm30B3/zub6qlic3p3hAREREREQkoT7dvfC0K6YzrOsjWs3Zqk2bONT1bYZ8b4rt+xs5LB+6GvmvYJKplj+0AkPc/okuylg4cxSenS9gTkTVbdyJJ7+M75XZ3aJq5lTkc+DNx/wBF0Aja7e2QPE4KiNKH3jztlCGrLGNo8CQwshGbeLhn9zBj5XlEhERERGxRZ/OdJ1W8G3IH8e5Dz7cc2XBCCC5roOJHDjcBcVG8NTkz3R9pxg8O7f7s1CjGJIProobWFXRc/shI4DGnstTVuZmCOCat5pV8yJXdlFUZt5fF0cPmteHsmkiIiIiIpI5fTroAqArvS6DyWjqOAKMonzpasoDC1s3GN31THqMucowYxxY1nYnIiIiIiJJ6NNB11edX0DxGZwGWQi6Al0H4wVULRztgpHDRmFvSiuGsC6C2QvyRERERETEuj49puurl7ZxmOGUWvjR4686v4D8c8gfk94+XcNGxVkbGE81n58uTDSAq5H2o0Qde2V24HAXxBwPVsvGnV24Km7g+qpELbdqNjc/cj+/fOROrv2OXXWKiIiIiAxcOTtl/GlX3Mu5U74dZY15SniIPi18ZBmDa/nDlBaHHic9ZXzM6d5b2HinaTKLyCncIXza+FCFxgyGphnoo3UVrFy2mjmmdkdm26JOYx91RsV7SNzrcTTX/uzvOO8MOPH+v3HXb/Yn2kBEREREROLI2aAr9xjTww/p0b0wyrTxfd2cG/nlj4oVdImIiIiI2KBPdy/MKv9MgbGWew63ZLlBmTKaa2cVA638TgGXiIiIiEjalOlKRrRug/Sf2QMvuul+FowCTuzil//0Mvt6u0EiIiIiIv2Agi4REREREZEMUvdCERERERGRDFLQJSIiIiIikkEKukRERERERDJIQVcUldU1vd2EAaOyuibhX2+0KZnl2ZKr7UpXuu2Ptr3ddVqtz67XKBc/FwNFJj9nqdZh53ap1KX3mz3SOY+kcg5Jpw0iYr9Te7sB/ZmVk1td7fostCS3xTsGVo6h1S+RRPuJtj7W8myI3Hdd7Xpb2xPruMWqP5kv62TaaPfzSla0fZvb1FttS/dzIckLHNfI1zzW8nj15Oq53Y73dLz3X64+70yJdixS+a4Rkf5PQVeGRX5xR/sil/Qk+gKz8iUX7UKkt78crVwcWVkfrd5o/45VPta2sfbf197XkcfZ3H7zxXagbCy9/QiGrYwAACAASURBVH6R1Jhf71jn52QDrVQDm3ifnWRvkiTaPvJxsm01f16ifXYGkljvm2jvIavvDSvZrng3yOLdRNS5SqR39Kmgy1Eyi6nuz9jx3n58MQuNZurMs2nbuoXWmIVSk+wdLbEmk1/UyXy5RMt2RKsvUZlMSiUozMVA32r3mWQC6ngXlclm3qzUH21f8d4fyb53cuW1GghivRbpfL5TubhN9iI62fZIdqVyzDPV68KOmwIikp4+FHS5KSl10dkQJ+ACCkaPxdFen3TAZfWCLdkL2FTHhgwk6XSjinXnLjIzEe8OX6IAoDezYIneb1YyMLnK7qAjndfHjuMX632VajYwV7oXFkysYbxzX/ybXYVTqCx30pyBm10DUbpZjmiP453/rNxg6svnmmxI5wZfptoR73sve4GXi+IZsyjx1lO3py1mKUvnGZE+ru8EXYXDKaCNvR3xCrlxF0FnQ+wPdizRukoEHqdD3QuzI9oXSKzXNNq25nK53AXDysVRMpLd1mqGKhti7dfu8Sr6nPZ/mcpgp5spi8XqmKpo58RoF+XJ1iOJxTs/gbVzebLZ+2jdoRO9xgqmRbKnjwRdLopHu/E1baEzTilHyVgKvPvYETcwk1xj10VtOhmp3r0T2LMtke2ws754dffVMV1WAyWr3f2sBuxW2pXq9gr2ssfKmJxY5fuCeJ+PVLvhSnyxxrylOnbOLJnzmzmwslq/iGRG3wi6HG7cTg9tbZ44hVwUuF342tpyKjWd+l1zf0reaVrk7Zl6d5TMYmqpK7SgPTyFHy1lb2zjZW9tvT+IdTO+ego0rKfZZa6vzVQmsPFops4ciyPG/gB/VyN3zDaZ2X3CtzIuK5KVO4HZDMDszob2x+yq+TWB3B3rlurFVrrvsx7nhYCwz2LkOcZj6h5onBMKghuOZWr12OAjX9MWdjR7jPNLUaj6kpk1lAQeRJ6vIs8dPc5nSZyHssTObE+y29v5nrTapTCRWGMc47d1YHyXpSvynGZenmpdAam81pbOIfE+05HrnFOorA5V09mwnr0d1s4zQYlej8IpVJbD3tp9OMzvuQy+biLJ6BNBV8HosTi8++iMF00VjqXE6aE5bmAWXyYuqlPtXlgwcRYl7GNHbez+zcYFTxt7a7eEfeFUzkitX3RBeY2RKazdj8//RTl+ojt0svKf8HxNW6gLnAgLpzC+MNTtM/QluN7fJqOeyomhk146FxNWxgEle6GUqLxdFyx26C9BE6T+XOIdf7tem3gXlFbH0kRuk6htdn0ujM8gNG9dHx5AhV14GMscEZ/lypmzYOsWWn1t7PXXGW+sReee9dQFto03piu4fn1wfcHEGqbOoEe9Cc9DA4Rd7xU7PxOJLuSjtas/f5fFk8xxt9rN01zejv3GYukckugz7dvPjtr9xB/TZe08E2qTldfDzfhq02vrGM3UmVMYX7g+wfAUkczrA0FXYJxWggk0znRDChNomCXT391qfamtd+FwAl5P3FkaS4qgs8F8966NvQ1tVJafTYFjf/LHIuyizIPPCzhdOGjDh5vx5cYxDrvz1FHP3uCDwGQn5m6gHlr3t1FSbozJ64z7vNPvjpVKF8Fk+833FiuDo5PVm2O6rATQyWwXOZ4hmX1FKxsri5ZoOytlrWwfWZfV5+BwuSDsJlUbbe1QEPwsm7pih32W99HsnYXb7aK1OfWbVz2Fuoebz0md+/fhmxnlXBX3PJQZuXgzI902JepeZvVzksyYn55l+vd3mVVWxxXH2jaZ/URuk0r3wsTnkCQ/02lL7vUwsmj+Bz7jvedwuaDDzvOaSPJyPuhylIxNPIFG8KSd/p3QdC9mE50grZ38AicTfzo+SlcMnINw0EZz5HHpOEQnU8h3QrJXKD6PN+xx8C42gMOFA+j8PM4x9pdxlNdQ2WOlB4ejZ5sydRfWzMpg4mh1RMtw9MUB5X11TJcdYx8gve45meziZWX/qfB5PFBkvvAxblz5mkJBi8PlAmd4V54glxOw8+LESb4THKWzqCztuTbyXBX3PJQhdn+mUx1barVNiTIdge2tdL+N1TarY4LiGzjfZfHYffM23g2pWK9nMvUkPock95lOW1Kvh4eusJc/lE0T6W05HnT5x2k17Yw/gYb7bBzefbaljtO5uI51Ykt6bFBHPXW1BPtFGxdHvTe2IRlhd5lSkEqmIlF2MtluielI5s5wMnWm+r7sj2O6YrHjYjdWINnbwbbVz4VxwekOH1/VXh/qRhUQ7QI4g3qMz0hTJj5ndrCr+2smMsjJ7N+249rPv8sSdUdPl50Zc6usnkPs/kwnku61hUhvy+2gq5cm0LC7+1YqXd6CAv2i/V9Y7kLo7AC8x/FhehxQOJwCPDR7Y1WYIispepvS+OneFbRrkHisC+9sX4Bb3Z+V8Wh2dZ3NVUnf3IgQL2jv7WNmbd+hbj/xLoaMO9mDSPKGfYq8dHmhwPYMWvriZXnSPYdEW5bM+8iuLmeRddrZhT6amHX24++yZM856Qa/Vl7/1G9KWDmHZPkzrS6C0k+c0tsNiMf4oeN98fsGF46lxNlGs013W6J9QUauD/wlqsdKlzfLX57OQTjMaXNfG21eKCg3z/wT6KseOmY+j8e/rSHmjEQJtdHc5MFROovxhabFhVNMj2OUiSETXbggtaCtrnZ92Gtid3eQdORCoGR3JjCTzyPZAMnqBZOVbKnV84PV9qTK4XLGXe9r3kcnbsbPGB2aXSxWWY8HnGdTEK+g9zg+XLjd0c4tRhcziqYwtSSVc090uXjTwEqGNBPnvGTYdZ5LWT/8LguI9dpm6/U2n38C32mpin8OSeYz7R9TVzTc9Pr2FP88k9rrIZJrcjjTZe2HjgMTaNjRTcHKl1CirlqpDDruuU3kNKoQPp2z8bj1vfX4JtYw3tSOsNmYAF/zTprds0Jl2uupaxhOZXnC5vXga95CnWcKleZ+1e311O0JL7ODWUyN7HsdMWVrqnd/o7HrCy1yDEOsbmqJ2mvnxUy8gCvVi7dMdZ/r7UyQmdX3VKKbLIEy0epPtCzaDZtk3jupfS48tDbswz0zfHpmg7lLl/Hv8dVTIsZ1RZ5njM/0XlcN401djXrcBfftZ0fDICrLTWM8zN0XO+qpa5gSvj6yTJLSfb/ZneVK5jMV6xwTuX085vVW9x35XZPo+ypR5jexgfVdBuHHJt66eMxlYpWP9trFO2dY/66weA5J4jPduWcLzTNmhb2+kV0FE51nrL4eIrks74Kq+d3Hjx3j5MmTaVU0rKAAO+oJ6Pn7G9EKGd0UfDb0883GBWMuXZT2pnS+FDIRGMS68Eh0kZyt1zNbWSY7nmeisnYfs2wFv3ZJ9fgnEnnDxtGja1C0aeMlkl3vp2QD/kyI7EYIyQdXidYNdKket2wf7+TO7TqHiGRKjgZdxu8vuNvij0twlMxiqvuzrA4GFxHJWf4bUUReMMVaLiJipnOISMbkaNAlIiIp8f/wayTN/CUilugcIpIRCrpEREREREQyKKdnLxQREREREenrFHSJiIiIiIhkkIIuERERERGRDFLQJSIiIiIikkEKukRERERERDJIQZeIiIiIiEgGKegSERERERHJoFN7uwEJFUxgw4RC8DXxq+0tvBKzYCFPVk2gOPjYx67t21jhS3G/Rat4rRxe3biSp1KsIicFjmdAwuMqfcGtKy6iZgS0vv0GS5hM7YVuOLiL6gfaopR28osHvk+FK7Sk9e03WPIfWWtuCkJtznRbLR1L5y28OHMwb9l5fnDewoszJ+EEvPvXcGXzVrtqFhERkV6W+0GXJQ4emDaB4o4PmG/Hz6U7b+HF8lE0NVzT84LKMYp100o58sEmru9Mf1dZ5RjFugmFtPbFtktcLUe9MAIOHwQ4gQc3rhhlb13xfSr4hMeXN7E2i22M5dYVF1Ez+BMeX5Eb7bF0LL0P8Vbbs1wyZxXYEnhdyaMzJ8H+NVysYEtERKTfyf2gq/MD5m9OUMZRSJnDx64PbAi4TBc/N7XbUF0OubTwTFy+Jl5UwDUgeI56oix1M34EtL6dGwGOdV5uXfFGr+092rF8as8aRrhu5JKJV/LUnhfT20HRdymlhVcVcImIiPRL/WNMlyM/5l39ZC2dWEOpdzeP98OLn2KXo7ebINmw3cuRWOumORmazbb0dfGOJVu5p2E3XncNjxZlsU0iIiLS5+Rupity7JFdXQfjupJyNzQ1PERdxJpLR03nupJQ0OKaMJsNocbxxuYPeCQwrixKW38yfjYXOf3jpwomsGECvLG5jXGmcWie5m1c1uLruZ3pMETrGhjZtsweqzIW3nED5fmmRV07efr+F2gyLSpdeDdLKkyFWjew8vHa4MPKZauZMyR8O2ObI2y88zH/8a/m+vvmw5u3sbHQXF+LqUygWYv46dKKUPAdsT8Aqpazat6omG3qy9Y+8Y4pc9XGkuWpZIX846aOhY9fiuz+d+uKi6hhF9X7zjLGOwHgZeez73Dr9ogq/2qyqQx49rzDXz7hBdw8/dhk0xjMMSx7bAzLepSLHH8WYz/Awhu+z7KJztCCg1Geh4V2J3UsA90MR99CZXvP84aIiIgI5HLQFexW6OCBadOZ3KNA5MQZMHmaKRBKJfAo+i6l+Hjf23PVKy3beKWFBGO6Onij2cd1JW5+QgePmNo6rhBaPzBPWFHIRVXG+Kr5nfiDzOk86Q3U63/e3g+Yv9n/PByjWDdtNk+a9m0EZR28sXmbf3/GcdkwzRzgmaI2SrmuqpTr/I+SHd9VuewGytnJ03eGB1nhZVYzp7iFjXfeExY8rbrD3SM4s2LkvNUs6Qrs0wj65iyrpi4QMPmDKc/OJ1i5tjG47PqqWp70d00NBXS3+dtk1LNqGf0m8Iqt58QZrgsvovZC/wNPCuOpRkymdvAnPL58F2sD9f9VKQu3h+oJBEHmiS8W3jCZX0zbxa3bQ8FM/DFdpm6FfzWZ2guj57SNyS/aWL/8HX4BBIK62gci6rXQ7mQ91dbCJe7BjAYFXSIiIhJV7gZdCXVw/eZNxj8LJrBhgjO92QqBSmcheD+hLkrQZdUrHZ9zZUkpF4xy8Ig/a3XpqFKK6eCNiOAmLODpbGKXr5DJ7kLo7ICCUiY7Onhjuylw9LXw+45SLgqUcYzigkJo/eADU4DXwfUfdLBhwplMdbTwimlMXFi2LaVnV0bREOBoW+zAqWwRM4rhwJvmTFQtT745jlXzyvheGTQ1JrnbsIxUI+1HgSFuSoEmqrl+3iho3cDP15oq3vwYTwYfVDOnIp8Db95jalMja7e2UD5vHJXUWr5Y7pFVNAsE+j0CXZPgbJE9bxqYCqX9Xg5nClymlfJ/rxnDkXRnAAwL1Lxsa/ZSMfEMgnnEaaVcNdGJZ887YftZ+8Qu+8eSTStl1ghofXuXP+ACaGPJ223UXng206c1sTaQyUrU7lR4j+FlEuVFQIrjQJe6R0Hb+v41U6qIiIgE9eGgy36j7RjzZAqMLm1p4RUcTHU78DTvMQVGAD6O+MIft3kBp4NLAZxOwMFFVbO5qMc+jDKvOPJx0cHvIzNVnW20MoGhDsC2C3cIBSrzWXXf/KjdChkxFBctvBc5+cnmjzgwbz5DRgBJBl2ewy1hj+sevy0UJJW5GQIc+DhOtspfxjVvNavmRa7soqjMepuCGc94rEz+Yr5p0B+NOAMXXnbuTOMORlL7amNLZBD5H3+k9cLJDBsBROmOmAuWTnyWS9zQ1HANF/eziXtEREQkREGXyX6PDztm5HikrYOLApkmCilzdPD7FovRj9fHK2AEXsGxYjlk82Os3ExwDNWS+yqIOsYqBx1487Zgd0MRe/k4kkJ8+dSea3hqjxF8vTZ6Nw9t1bgwERGR/khBl0mdt4NbnGOodJJWF0Ojq+B0ygodXMqZ0CPLFY0DtxM8bcaOX/F6uQ4n7njZKl8XHkoZVwCYs10FborxscvWLFeExhf4+Z0vBIOv71RB3Wbg4BE8mB4HVI1jJF00HLS7HW0cBYYUxklXWSljUd/sXtgLDhq/b5WVLNPBE3gYw/i/AszZrr86i2K87LT7PRfJORgnHRxM45yhcWEiIiL9m4Ius/YPaaKGcUUzIdaU8T4fR4DiwLiq6IXY0eZjcsl0rsPHru2Jr55/Mn66MYYrkBHzB26Tp03gJ7GyXb4OGn2lTJ5gLlPIkxMKoeOD7Fy0jxiKiy6aAhe2jdtp6qqgfN5yKjebZiH0j7sKDLs6cLgLiocyEmjCPNth7Am6o6tl484LWFJxA9d3mDJZVcu5nsf8j2OUSUH/7l7o5fNjwGAnCyE0U+EIINpPfsWzvYktF46h5sLv84uDodkBF94wmek7d4XNFmj8GHHE2Kuk9tXGJ381hooLJ3Prf+wKTaRxoRsO7oo606GdlrpHgXc3+zO7GxEREenDcjbo6pFRcExgQxVkNgvwIg1tNVwy+ocsbd4aY1B7B9dvb2LdtEB7jGWR3QBfaWniopIJFHc0xWirI3y2RV8Tv9psnuDCx4rt23hg2vQe47pCE3D4WLF9kzFBhqmMp3kb8612Z0yKMQvhyLBlXTQ8dQ+hOSwaWXv/bbQvW82c+1YzJ9Am88yCQNPaF2gouyFUpnUDK98cF2XMVWJNa+9hZcdyVpnHbLVuYOXj4WWe5m6WRI7r6kfTxtvhFw/sYvxjk4PTt3v2vMPjRytYVpJKXW/QcsP3WXbNRdReYyzz7HmHv4wIgtY+8Q6jVlxETWS5qFPLQ0WgXHBKeGOikFtXXETNYxdRQ6iO6icyPKbMeQtzY/zMhIiIiEhA3gVV87uPHzvGyZMn06poWEEBdtTT+67k0Tk1uPev4cq0fiDZ6D5GtCnZbZptUUR600zunnkj53nWc/GeF9OrqmgVr5XDqxtXagZDERGRfuiU3m5A7nmRmxpacI6+kRdLZqZYh4MHphk/kpzMb2CJSN+xdOKNnOds4dV0Ay7wTzs/irkpn3NEREQklynoiqZ9JRc3tOAc/UOWJrOdYxTrqmazocr/o8bJ/jiziPQNzluY626xLzPlfYgr/Td7XpvzbBo3fERERCQXqXuhiIiIiIhIBinTJSIiIiIikkEKukRERERERDJIQZeIiIiIiEgG5WTQNayggFNPzdmfEBMREREREbEsJ4MuERERERGR/kJBl4iIiIiISAYp6BIREREREckgBV0iIiIiIiIZpKArWVXLWXXf3Swsi1OmbBE/vW8111dlrVUiIiIiIpKjFHSJiIiIiIhkkIIuERERERGRDMq7oGp+9/Fjxzh58mRaFQ0rKMCOeuyuy1DN9ffNZ2SP5V00PHUPaxuNR5XLVjOnOLT2wJu38eTm6OvCq9nJ0/e/AAvvZklFfoxCLWy88zHqgo/LWHjHDZQHi4e3JbC+tPEJft4xn1XzRsUol22R7Sb4/JtMi0ojj0XrBlY+Xht8WLlsNXOGhG9nbHPEdJyM1403b2Njobm+yGOJ0aVzaQWuGPsDjK6hweMYowzAnBv55Y+KoeVNfvzopkQHREREREQkrgHwC8T+gMt0gW1c3GMKXvyBxNENrLzTfxFetoifLl3N9RiBV93jtxkX+VXLWTVvaPTAZ+09rFxLMAA4agraorVpyM4nWBmopGo5q5beDRH1uipuYBUtbLzT2H/lstXMWbiI/4oIcrKlctkNlLOTp++MvX8jQG1h4533hAVPq+5w9wjOrBg5bzVLugL7NF6rOcuqqQsETP5gyhNxPK+vqg0e/1BA538d/fWsWkb0wEtERERExCb9P+gqczMEOPBx6MK6aWcjnooKhowAGoGq+ZTnt7DxftPFd+MLvNdawZxzq2GzvRflpQsvYGTXTp42R1ebN9Aw8wZKK8qg0bQ8Iot04HAXFA9lJFgMXhw8MG06kx3R17Z+sInrO622vIyiIcDRttj7LlvEjGI48KY5E1XLk2+OY9W8Mr5XBk3JZunCMlKNtB8FhrgpBZqo5vp5o6B1Az8PO56P8WTwQTVzKvI58OY9pjY1snZrC+XzxlFJbXjWbOMafrwxyTaKiIiIiMTQ/4OuxjaOAiNNwVNpRRkuWngvkAUpHArkM+e+1cyJ3L4rcHFvn5HD8iG/giX3VfRcOWwURiToFxHgNAWyaZb5WLHdri5ygUBlPqvumx+1WyEjhoYd26DNH3Fg3vxQoJsEz+GWsMfBrCNEDap78JdxzVvNqnmRK7soKku+TSIiIiIiVvX/oIsWjnbByGJ/oAAY46IixgRFGyeUSdEClr5g82Os3EywC6UROGb52KXoQMzuniIiIiIimdP/g65A18E4QUFTxxFgaNYyHsl3EUyHnd0LTRpf4Od3vhAMvr5TBXWbgYNH8GB6HFA1jpF00XAwhX3FbYeRyRxSGOfFs1JGRERERCRDBsiU8f6AKpbNG2joyqd86XIqE1V18Age8o2xV7GYuzRG0bT29xxgFHPuWERpov2lzeheOH9z9L+UAi6zEUNx0cXRQDDVuJ2mLhg5z3wsA+Oufh+cJOTA4S7IHxqcUbLHbIeW1bJxZxeuihvCf4y6arnpcYwyscy5kV8+cj+//NnljE2hRSIiIiIiZgNiyvhY0717dj5hmnwhylToxOiSFjn1eLSugpFTmPfoghdtGvuu6DMq5szseonaHBJ5zMOPNfQ43q0bWPnxOFbNo8eU8UN6bBuFhengowZ20aaN/87l3LtsMmfQxfuP38ev/xB/1yIiIiIi8fT7oKvnbz+Zl9PLv3klueqim+5nwSgFXSIiIiKSvn7fvXDksOhd1ozlR2hXwCWRvnM5PxgFtGxVwCUiIiIiaev3E2nUPf4ERXfc0HM6+K74P/ArA9Fsbn5kHiXAiff/jR//Zn9vN0hERERE+oF+371QRERERESkN/X77oUiIiIiIiK9SUGXiIiIiIhIBinoEhERERERyaCcnEjjcGe6v9grIiIiIiKSG5TpEhERERERySAFXSIiIiIiIhmkoEtERERERCSDcnJMFwDOW3hx5iScgHf/Gq5s3prR3V06ajrXlTiCjz3N27isxZfRfSZj6cRnucQN0MKrG1fyVG83SERERERELMnJH0cO4w++2hqu4aZ2e6uOrpAnqyYwNIeCrsqSx7lldIeCLRERERGRPij3uxd6H+KtNih1X9nbLeklM6k804F3/28VcImIiIiI9EG5H3SJiIiIiIj0Ybk7pstmPxk/m4sKQ49bP9jE9an8HFjBBDZMKAxb1KMuxyjWTSvFFXjsa+JX21t4JYXdiYiIiIhI3zYAgi4HD0ybzmTvB8zf3OFfNIp102bzZLKBl2MU6yYUxg/YCiawYYKTXds3scI/JOwn42dz3TRAgZeIiIiIyIDTJ7oXPtXWAu5K7namsHFBKZMdHbyxtyO0zNfC7zug2F0Ye7toHPm48HEk5vwaDh4oLcTTvCcYcAE80tyEx3EmUx2xtovDeT7jnD4+as/s7I0iIiIiIpIZfSPT1b6SizdeyaNznuW1JKdMv9TpBBxcVDWbiyJX+hxcCtazT51N7PJNZ/K02WwgWhdFJ0Md4CqZzoaSnpsPdQBWJ0QMTJnv3c1DG5dRZ7WNIiIiIiKSU/pE0BWaMv0abkqphg7e2PwBj6TdEh8rtm8C/GPEJhjBV+RvetnyG1/eh7hyI0bwNedZ/kfWpswXERERERE79YnuhaNdDmj7MKUp01/xegEn7lS69sXxyN5NzN+8iTc6wOUu5FIAvBzxgcuVSj/IGLzv8pEX3M6Z9tUpIiIiIiJZ0yeCrrR0NrHL52DytAn8xPbKHbidgNfn76LoY0VTBxROYN0om6M8ERERERHpk/pE98L0+FixfRsPTJveY1yXeUxW5JTyBMdlhbomXjpqOteVRARTHR8w3zxJR+cHzP9gAhsmRIzr0rTxIiIiIiID0gAIusA8FiuWR/ZuSjjm65WWbbzSYmF3nR8wf7PlxomIiIiISD/WB7oXXkm5G7yeT3u7Ib1kKwc94Bz9Q5b2dlNERERERCRpuZvpCkyZDtC2noubB+7vVD21Zw0jXDdyyZxnuSTJKfNFRERERKR35V1QNb/7+LFjnDx5Mq2KhhUUYEc9IiIiIiIi/Ukf6F4oIiIiIiLSdynoEhERERERySAFXSIiIiIiIhmUk0HXsIICTj01d+f4EBERERERsSongy5JTWV1TUrrE23X16T6fDJxfPrbsZXcFvl+S+b9Z8d7NV4ddn0W9JkSEZG+SOmkDEjloqCudn1S9UQrn6q62vVUVtckrDNaewLbxqvbal2J2Pmcs8XqsbUi2eMcuV8rx9yO16svvk59UbT3lfn9Ztf7LtvSbXc673MREZFMUdCVAfG+0JO9oEg2GMu0aBfxgWXJXuRbCRSyxY79pnqX38oxC5RJ5v0Q7cI7cl/pvF7RjpmyENkT+fqaj33g35Gf0UipvIaZ/nxGe9/Gy+BFCzwDZaK93yura2LeQBIREcmUARp0uRlfPQUa1rO3I50yyclEQJFqndEuOiKXZfsiJNnnkkqQEy9oiff8rR6bZI9Zon3qQlCsivXeSTYQTnTTKBl2vYft/FxYCepERETsNiCDLkfJWAq8+9gRJ5iyUiYZ6X6p2xVcmeux8+IqHdHu0AfEa2Myd+8TiXW332omINZd9XhtSufi0eq2iTJjiTIhtnKMZurMsfhsvJEx0PXFoNzKe86u56VgSkREcsUADLpcFLhd+Nra8KVVxjpzt5bAY8jOBVOs7jXJBgiJRN5ZTzfoCdST7L5TWW+HeGNrrG6TLam+Tlayo9J70plEIxP7jdd9ON0JPlLJPOu9KiIivWngBV2FYylxtrG32ZNeGYtiDXYPrDM/zpZE+0s2AxZt3FA2u8Zlan99uXtfvDEvqdKYrtwQL+BI58ZHqqzcsLFyrov1vFKZ4EdERCTXDLigq+BMN7TX05lmmUSS6UKTzQukWHearQ4sjzWRhpVgLFG72dcPswAAIABJREFUMiGdY5tORqiudn1aXQcj/51q5jDR65yNC1ZHySymlrpCj8trqAw+amNvbeCzFhpH2ewyb2MuA+CieMYsSpyhffiatrAjcJOkcAqV5U6at26h1Zyq9ndvxFzWv8wRKOPdx4739psy3Km3qWddgba5Q4/b66nb0xbr0EWVjeyNHfVGdtFNZoKOROeTWFn7WG0QERHpbQMr6HKMpqQIOhviXORYKRNHKhfJ2cgMRbYr0QxfqUgn65Fs98JEXY6SHScWb1/Jvj7pvp6ZDMZ74wLV17yFumYsj+kqKK8xxlPW7sfnD2bGT3QHg5OCiRXQsJ66QDRTOIXK8lmM9/jr7ThEJ1MoGe2m1RTQONxn48CUwQ4GZ+uDwVnBxBqmzqBHsJS4TbMoIbA+OiP49LK3dr0/WDPqqZyYfOAVS6rjIyPFGy+ZTB12voej1ZdM1j4y+2s1cBMREbHDgAq6HO6zcXj3xb3gs1ImnlTH8GTqSz9RNqqvsnJRmM5FZi4fq3QvFq1mNa1sl5HjFJb98eDzAk4XDowxlp17toSX7zhEJ24cLhd0eIA2mps8FJQOp4C2YIBT4HZB+75QwDPaja8pPBvWuX8fvplnU+DYH54li9smFw4n4PXEGQPqpqTURWfDFlN2zEPr/jZKys3tTF28bsu58n5O5z2bTvZYRESktw2goMu46PE1xZscw0oZ66xc6GR7ggezXLrDa1d3pkzdwU5lXInVrnzJZNDS2T7WNlaPfbbGdPk83rDHnXvWU2deENklMLCd+d9tn+ErHYu7EDo7AIcbt9NDczCD7STfCY7SWVSW9mxDvjO8wvhtCgRPU6isJnq3QocLB5FdK0PbOxwRTyBFqUxUkU2pfi7T/Tz3xiRGIiIiZgMn6Co07ibHn0DDQpkkpdOdK9b4Bbu765j/nc6g9VQv9Ozo3hhrwpJsBZZWgls72mJndqtPCgRcYZknY9xVWBDm209z+1jGn+mGjjZ/BvszOiMCm7CxYOnoqKeuNtS+qdVj6TnuCzozOF1+rCA42xn2RIFNst1nrXQbjnUTId75TV0LRUQkmwZM0JWtCTQyKZUxDVbqBGsXQJm6eIs345nVIDDeBV5v3t02P4dULvLsaHu07EefDcKcg3DgoXl/4jFQnZ+3QflwCvDicLvo3G/OPnnp8kKBywnYd5MF33521O4PBl/BTJvP6HoY6gJpr1jvq2Ruptgx8Yvdn7F4gWS6z1lERCSbBkbQ5RhNSZGH5q2JJtBIUKYXZOPubDIzgVmdgCNeXfHqMYvXpmSCkXhjXSLrs1Mq2bd4F7BWj2mkaG1Ihm3vN3/gUeDPPqXEexwfblP3PyPLVUCU3nn+CTXcJcdxONtoDsswhboETi2xKdtl5g8O24K9Eo1xZlNLTRN+pMnq5zaV1zsZVs9JdrzvrN7EsJpBU4AmIiLZMiCCrlhdi5Itk4p0Luat3slNJliKty6ZC5DIsokeJ9p3snet0x3HlGhdtPFYyXbBTCWYjLUu1QvDZC4+02Gtjjb2bt3H1Jn+sU+BZbVJZJd9+9nbdDZTTWOjOhu20Dx6Fu4ehQOBzlh8TVt67qOjnroGY+bDsHFd0cZkxRUK/EI8Paas9zVvYQezwtoOpDRtfLTPWrQykaxklBN9ZqOxkmlOlpXPQKpBU7oZaBERkWTlXVA1v/v4sWOcPHkyrYqGFRRgRz121xUc7xF37IaVMsmzKxiysj6V8mDtIszqMittSuc5W5WpCygrxxisB4TJjGlJJTOWzL7S6eKZSlnJDX3hNUv0uUr2c2THe11ERCRZ/T/oKpxCZTnx76ZbKSMiIiIiIpKC/t+9MDCrWLplREREREREUnBKbzdARERERESkP1PQJSIiIiIikkEKukRERERERDJIQZeIiIiIiEgGKegSERERERHJIAVdIiIiIiIiGaSgS0REREREJIMUdElaTl62g6OX/WPE0qv46u928GV5rzRJss39r3hueZuv3L3dkCxy/yueW/4dG36+XURERAYABV3JumwSN605n9nT45SZXsKSNXO59LKstapXfHPh23SNaiZ/3f+OWPM8p21v5ou5fTDwGiCvnX3+kS+vmgo7n+K0tt5uSxa1/T2nt5TQpcBLRERELFDQJakp/3eOV4Dz+b/m1GjrG/6aQTu7+GKuLkr7r6v46u/+ki9a/i+ut5/v7cZk3anr/hnn8RK6emR6RURERMIp6JIU/CNfzi3hWwmyG6e8/VRWLkpdyx+mfOV1nJbRvUikby5cindQtEznQPE8p/2/HXxr1F/2vYyuiIiIZFXeBVXzu48fO8bJk+nlI4YVFGBHPXbXZSji0jWTGNljuZfdz7zLpm3Go/F3zWXuiNDaA7Vv8cq66OvCeBp54bZmuPF8FpU7YxRq560bd7M3+NjJ7NXnM8kVvS2B9ec0vcvTHWXcVF0Uo1wvKP93js6F/IdiZLl6lC3A+fyFGex+djHDH6xiGIdouv0hPCnUUGT5tTPeS9S+xZZC8zaJXl843vAuT6/xGg8um8RN1c6er+X0EpYsLgNzWf+yQYEy/vdbe6j1KbepZ12BthWFHh/czaP3hpXAyHL9L75q+uc4Wa5qrr9vfvjnrnUDKx+vNS0oY+EdN1CeH1py4M3beHJzxPqj4dtVLlvNnCE7efr+F2gCqFrOqnmw8c4NFJnr67G/QNlRoUOw8wl+vrYxTpu6aHjqHsKKmJy8bAddg3cw6N/+PupdrLF/cyc/Pi+fE+//G3f9Zn/0SkRERKRfS3jN3Pf5Ay7ThaNxgY3pgtd/MXpsN4/e6L+4nF7CksVzuRQj8Np771vGxWusi2WANe/yaHDbMk6YgrZobTqj4V0eNV+ELz4fCK93UPn53EQ7b91o7H/8XXOZe1kJe7dFXChn0cmxJXB8h7U0aUMD3577l3zjBjIWdL3GodsP8uXKqyh98GEOr7+ZQ5uSq6Hd8mtnGFk9l0WeRl64sZl2//tn7l1F7PW/x8bfNQnWvcWjgdfyskncVH0+l17mr3fdHzlQPYlJc4rYtM0UPk05i0G081aP4OytsJsDi1bTI1hK3KbzmURgfXTGZ8MbfL8FPhs33RUReLnP56tBcGpnrICrjIV3zGdktKAnyB+UtW5g5f3+MlXLWTVvNT8tjAyErBjFnPtuwLPzCVaubYSyRfx06Xyur6oNBnGlC+9mSUV+WGBXunA5C8se8wdVRpuGBOoItGnp3RAj8Dp1XzPMLeAb1HVAREREouv/Qdd0J2cAB/4QumBsr/8jx8vLGDoS2AZcVsYkVztv3Wa6qNzWzPY5Zcz9ThHYHN4U3VjGSE8jLwQurAHWNbJ7+vmcM8UJ20zLIzIRHUe8MOIMCi23ysED06Yz2RF9besHm7i+M5nWX8U3g+FbTe9avMD8lFOOg3fsP3J6Q3Ld0E674l7OnfLt6CtbN9Pw2GumBfUcXlVP1xX3cm7Nw3zb/TyNL9Untb+khGV/vLQfAwY7Cbxb9t77rinDhD/IKuKMQifgBdrZ0uBlUflZjKc9GOCML3XCwcZQwDO9iOMN4YH43o2NTFt8FuOnN9NuDvzjtslJ0WDgmDfO+6aIWeVODtSa2+5l07Z2JlWb2wm4C/iaZk5viFXXKIbkg6exJebeShdewEha2GgOyjY/xsZzVzOnbBqlNBpZrCSEZcka2zgKDCksA4wgbGFFPp6dT5gyadC09rHgfkoXXsDIrp08bY6uNm+gYeYNlFaUQWOUqKutk28xlZPlcGqU47HvN/fx498k+URERESkX+n/Qdc2LycWw0hT8BTIJmz3ZzKKCp2Ak7lr5jI3cntP6ELaLoVDneAqY9Gasp4rhwYuyv0iLpKDGRnLfKzYnmTaJ65z+GZQ4lJ2+Oqlu2h4KYVt2m6hvOYqysd8j49X/YqvMtC240e8YY+DmdCAyC6Bge1M/w4E/+deBnvXAdOLOMflZfe6wCvuZKjLn+1c07MNwZsGltoUCJ4mGXVF61bov0ExqHouN1VH7s1L0XTY69/fNwUFQLxovZaNOy9gScUNrKogaje/kcPyofX31EVsWfdxC3PmDWUkJBl0dXH0YHgbnrzTtM8RQ3HRRcPO2Bm0kcPyIb+CJfdV9Fw5bBSQbPZNREREZCAEXXg54oGRIyaZLly97H5md/hFco/xLxkW7aK3TzAyV8n61pFP7W9KFIHsmK8+w5mueAIBV1jmyd+l1FwuIptaNOUsBnn+GAxsAsLGgqVj3W4eXRdqnxH093zfH0jQtRLglM7E6dGmtfewci3+LoPzWXXffOgyjcPKVSm1sYtTBtKU+SIiIpKU/h90BboOxgmo2ju8gDPsTn4mJd9FMB12dy98nlOO/S++Lj2fb95+3kIXQyMzFnvsT2zJdS80ZjEsLSalMV22GnkGg/Cye2PiV3fvH9qZW30W4/FSVOrkQNhYPf8Ng8jsZ7q2NfP0tuZg8BXMtPmzwqEukHEk6FIXZvNjrNyMP/gq43tl0NQIBw53QcU4KqkNy3ZVnjsKunZyIK0nGcXBI3gYxZARxExYHTjcBcVJZtncBXxNJ6cr6BIREZEYBsi4byOgimldI7s9TiYtnsT4RFUdOMFxnMbYq1i2eTlBoEtjT+1rGjlAEXNXlxC9hJ2M7oXzN0f/Sy7gMpy6rxkGnctJt4XC5eV8kWIW4KuX7qLh9puj/4UFXBcz/MGHKS0+RNPtaQZcCV47S/zvkaHBaftizZ6JMdaLIs69sYhzXO18/P+zd/fBUZwHvu9/cTm+sV7wCiRNEltoJSa8HGKxwsY2dnElIkHE3S3n3rK1G7NUEqjYhhSpOHERFzhwa8MaKqHseMtU8EvKbFJeJ2dJ6u56dwvWoICOb4xtbHRQlrWNB2mFsM9KCASekZzrpZL7x8xIPa2enu6e7pke6fupciUz8/TTT/f0iP7N8zIZPUzJIYG6aYnWb7K53rxKhcNLE+kmOc/shqY7c/849NCruu6K9NF85z8H0FgzW9IlDacCT19PTAnVq32jYSxj62a1z5UGj6d7mmIaHpVUFVFjqkjLxj1qn+t4t5NiL+q1c1Ld6h3qNIzsTS6kkWrTgd9oUPVq37p2Yn+5JBeWGcn6x3T+X27TUz/araceWumh0QAAYDqYEUvGZ1vuPXPYlsVy2soy1Mq8pLbl/BjznB5zb5vVjfiY9YqKU5brLrbv6XcPJ38Ut8r2N5qSy4qPXc5VLj8Vm59QY9Xb/s3fsn3vJleetBvyZ16CfrDrVV26PfUTAKbt0mWzDiM0X2+S6Zpz0qZc11v2tkuyXDb+91/4deoHsi1+DiC6Vo9saFbmx2lAR7btNc3hMi8rb7U8e2aZRM8zOqC1Wh+NmZaMn227tHtaegXDtKlLxlssdZ9t2fjIj5VYt0zXHl6WfVGR9k166k/nSjqnf/72Pv2rffMAAMA0NO1D1+QS2JnDC6cuGw9XHPz+VvKmfMTZ73mhBBUmVIeX0+Ofp6/+1dd16yxCFwAAM9W0H15YM9t6WFZNap7MMIHLm94/V+VApcbW/VofWw0zbPp7XWmu1PWHCVzT1wu67p9O6JP1X9Lovc6HGU4XV+/9lsZu6FdlrsDZvlq3zpI+fPNlAhcAADPUtO/pyjZssHRXDwyXq/eeUFzmb/qTPQC/f8NmyBWmj8iPlVi3UNfZ9HpOO5EfK7GuWp+y68Vd8Bd6bOOfaJak/n/ZqieOFLB9AAAgVGZA6AIAAACA4pn2wwsBAAAAoJgIXQAAAAAQIEIXAAAAAAQolAvLXRzx8Iu9AAAAABBC9HQBAAAAQIAIXQAAAAAQIEIXAAAAAAQolHO6JEnlD+vny5eoXNLY2X26r/94sVsEAAAAAK6Ft6dr7HHdd+Qruvv4KWneJj1ZW+wGAQAAAIB74Q1daWOP6/CQ1Bi5r9gtAQAAAADXwh+6AAAAAKCEEboAAAAAIECELgAAAAAIUEmErueHBqRIi3aUF7slAAAAAOBOSYQuDW/X3Ue6NXv5z/RS+05tKHZ7AAAAAMCh8P5Ol0FLw9N6eN4F/cORr+ihYjcGAAAAAFwoiZ6ueRVl0tC/6/liNwQAAAAAXCqJ0AUAAAAApYrQBQAAAAABInQBAAAAQIBKIHTdp6aINJb4j2I3BAAAAABcC+/qheUP6+fLl6hckoYO6u7+48VuEQAAAAC4Ft7QNfa47jtS7EYAAAAAQH5KYHghAAAAAJQuQhcAAAAABIjQBQAAAAABInQBAAAAQIAIXTm0tK0pej1+tMGv47Crz+99AAAAANNBeFcvDInuroNqaVuj7q6DvtfjtF6nbXDTzlwBKd/jBQAAAJBE6DKwCyJ2r1kFFD+CmnmfxsfpIJarHXaylXfaY+Wkt4vwBgAAgJmupEJXWcMKLYt8oBOvndV41kLztGz5ZzV0/BWdy1ooO7chwc2QOr9CUT51+iFboPQjaAIAAADTTQnN6YqoobFCI2dtApek6nnzVTZ8xnXg8hIY7Lax6onysj+73i4AAAAA4Vc6PV01N6paQzp9wa5QRJFaaaR3yHX1XnpoCtGrY5zPFYaepFwh0DwEEgAAAJjpSiR0VWjuvIjG+17RiE2psob5qh47oxO2wcyen8MF8wlK2cJM+n/TdVq1t9BhJ9tQQwAAAAClErrKIoqUJzQ0lLApVKHqSIXGh4Zshx/mUoi5Sk7qM7+ebRtj+ApyPppxHwx5BAAAAJwridBVPW++ysbOaMQuTdXMV0N5Qv22wazwwjIs0Iqb1QtzzV9zUgcAAAAwE5VA6ErP08qxgManI9LwSU8rFpr5HZK8zssK03wpu/0RsAAAAIDsQh+6yhrm515Ao2yeGjwuoOFUvnOnvPR4efkh5WKgpwsAAADILuShKzVPq6/HfgGNyGdVNnYmx8qG+fHjh469BC9z+TCGLwIWAAAAkF24Q1cBF9AIkjEouQleVuXCOEeMni4AAAAgu1CHruQPHeeYp1UzXw3lQzrd788CGn7/JpbX4OTkh5f96H0DAAAAEKwQhy5nP3ScXkDDbvihU1Y9UsbXsrHr6ckVnLKVyWcpeKfcrF5oVyZb+VznAAAAAJgJQhu6Cr2ARrYeKS/1ON3W/APH2cJXEPO67LZ303YAAAAA9j5xV2vHH65cvqyrV6/mVdGc6mr5UU9ShebesUKRoVd0wmbYYFnDCi2LfKATr9kvJw8AAAAAxRLS0AUAAAAA08M1xW4AAAAAAExnhC4AAAAACBChCwAAAAACROgCAAAAgAARugAAAAAgQIQuAAAAAAgQoQsAAAAAAkToAgAAAIAAXVvsBmS18mE1rblx8vG5Y+rd+1Lx2uNU62btXF0/+fjcIW1/uiv3dtG1emRDs0Zf3qJnj4WkTfAoqs6tD6qpMv04rt7nv68DsWK2CQAAAMUS3tB19HH1HpWkpZqzfZ1uzFU+h4rNT6ix6m29s/M5fexD87I6tlfbj0kTN95e6kiFpEHLAJaqd9RFcPKjTdNa+rz0aP/uF9Vnfrl1s3aunu0iOMV0YPcWHTBsCwAAgJmL4YVhdOxtDUqqW9g29bXobWqslAbfoafKPzG9FYtLlVHdEp36asvCeike01v0VAEAAMADQlcodendc5LmLlKL6ZXG5qgqNKB3/R6COMP19cSUUKUam82pq00L5kqJ2BtTe8AAAAAAB8I7vNCx1PDDifkzH+n95x7Vxfck6W7d+MNWzZkou0gLf/jExKPxky8o9ouT7nZnnh8VzzIkLSfzvJ+k0dT/dr8zoPa59VrQKnUfm9zmlmildO436jZs09i5Q+ubDRV5aZPVELos88xaNu5R+9zJx9bDIH3Qulk7V0tHtr2tBbs6VJd6OtHzjH5gGudn16aWjXvULuvhmI2dO7Q+GtP+3W+oL96spuhtalRs8ty1LlKd4urtMe6vTQ8Y2mPenzPWw0RbNu5Re5Xp/Uu9DxXpx1nf35X6zo9Wq0Hn9M/f3qd/ddMcAAAABKbEQ1cyVF1/8gX1psPTyofVdP9j0nOP6uJ7L+n9776k9+XPnK5kuJF6n9+SCibJG+f1u2bryLa9GUHIXuqm/dwhbd+duuFO3VhPOPa2BlfXJ4cYHkuXSQ0tPG4ID62b1akXtX1bLKPu9RuHAlgswxAUthnbvUcPKKDgpXq175qt3ue36NlY+j1Yq86e72e8BznbVBVRozQlqNTNqZRGh9SnmBSLq6k5OcSwL3U6k0MLewxDC6Pq3LpI727bomdTzzR27tD61TvUeT6AxTImwvCWibpbNu7R+q3yGPYBAABQaCU9vPC6L9+uOfG3dc7YW3X0qN6PX6+qW5b6vLc2tTdXKtHzouHGOqYDB3qUULJHyqnGzrtUpwEdsQ1FU4cYWg4tPLbX1OuT2i4VMnzV2qGmSlO7Yy/qtXNZ5p/5InPlv/QwwKqbnLdp8GJ88rXoWj2ya4c6o5IUVW2VlLg4kFH35BBDq6GFMR3YnRmwp7TJN1F1Lq83XXNS95EeJSznnx3VE9/eqm/SywUAABAqJd3TdV319VJl5pDBCdU3SXI5dNBONKIqxdXXY+rKiCWHpTXWRCU56+aomzN1iKCVzCGG1kMLsw1TVFy+a6yZLalS7bv2qN38Yty6Jylojtp04ZLUPDs5HLA5qop0sEq9XaMXUv8nZhpiaDm0UFOHmKaMTnkmX/WqqpQqmh/Uzuapr1bdJKeXHAAAAIqopEOXJClegGXgiyU1xLCqJmo9tHAicA1kDG9MzgsKqlEDLodSFkKONp2/pISiqo1KmiP1vtyjxuW3qVFDqsoIq8lVDJtSAa1uytBCTQSujHll5qGhPrOawwYAAIDSUdLDCz8e+UiqnKXrCrGz2JBGrVa3S4Whid4Sp8zD/26aPblQwoTkUMGK6G1qsVy1MNkTkug5VJAQ1HfhkqTZyfASEo7aFBtK9UK1aUFVTG8de0N9iuqW1mTv5eh5Q309sdRwUetVC5M9awN6rSAhaECjcaliztReNQAAAJSO0g5dv3hdF3WjGrffnzN4JQPaH6vyc173lgpAzWtT84EkKarOzmZVxHt0xMUiEt3vDEiVzWpPzwPLMlwto2xzpXTubVO4mnpTbl7Fz7HzlzLnJZlXzJOkY4fUG69U04bNU5ayt9KycY927tqjRzoDTGmO2jSg0XilGjvvUlXsDfUp+ZtbTcujki5p2JifYm+oLy7Vre5QncVw0ikhz+o8ORLT8KgywvfU9y6mA8cHpLkdDs/hSn3nR7v11I+26asLXDcIAAAAAQnt8MLrvvyYFi69fvKJylY1/bBVmUvCv6T3vyvph62meV3GMkkf/+JR9VU/ocb7n9CNqefcLhnf/fQWDXbu0PoNe9SUfvJc5pLfU5Zvr+zQzl0dylgQ4the7a/ZofWr92jnaiWXAN/2ttp3dUzdaXoVQ1n9IHJyIY/GDel9JNuzv+curTfcoztqU+xFHeiJTrZJAzqy7ZAWZLQppgO7n5G2PjhlDpXVkumDF+PS3EpVNHeo5UBQQxKdtCkZcJrmamJ+Vl9PTInmZlXEYxo01ZccYlhp/YPIx/bqyMI9ap+4BuLqff6QqjYYz9PUJeWb0uUN10v308nzu35XcmhioucZ7b+4NuO907G92q7N2rnaNK/Lctn4c7r4odQwq1Lzb50nvXs29+kDAABA4D5xV2vHH65cvqyrV6/mVdGc6mr5UQ+mk1T48PxbZnCtfZOe+tO5+vDNn+jRvyN0AQAAhEFJDy9EuCWXxpcGjxO4CmOevrpirqRz+h8ELgAAgNAI7fBClLCJeU7xjB/1RXC++NBu/Vm9pA//p5769n/XmWI3CAAAABMYXggAAAAAAWJ4IQAAAAAEiNAFAAAAAAEidAEAAABAgAhdAAAAABAgQhcAAAAABIjQBQAAAAABInQBAAAAQIAIXQAAAAAQIEIXAAAAAASI0AUAAAAAASJ0AQAAAECACF0AAAAAECBCFwAAAAAEiNAFAAAAAAEidAEAAABAgAhdAAAAABAgQhcAAAAABIjQBQAAAAABInQBAAAAQIAIXQAAAAAQIEIXAAAAAASI0AUAAAAAASJ0AQAAAECACF0AAAAAECBCFwAAAAAEiNAFAAAAAAEidFloaVtT7CZgGgrDdZWtDfm0LQzHZRREe7zWGcR5Ddv5DhLnAAAwXVxb7AaUArt/4Lu7Djoum20bhENL25qM98bv97K76+CUfThpk9O67eqwet1tW7xuE3ZW77tfx+jlPS9lYbteAQAIC0KXQ9luArKVy3Yj19K2xnY7FI/VDbLdzbjdDaaX16yugVzXhZMbUavj8noDG/YQYfycOW2jsXxYji0s7XArbNcrAABhUVKhq6xhhZZFPtCJ185qPGuheVq2/LMaOv6KzmUtVDzZbiiCUn3zGi0uP2N/zjyLaHHbUpX1vaIT/Qnnm9UsVUtTZPLx8El1/3bI99YVW67Alu9NpNtgYfc4XV+uMmFmPB/5BC9jfeb6jeWd8tKbaLV/u7bZ7yP5Oa1WQv1u/y6WzdOy5fM13ntQpy+42M4C1ysAYCYrodAVUUNjhUZ67cND9bz5Khs+6TpwZbvBMvZcucW8gywunFR3lyRVaO4dK9RQ7PYY5Lq5M18XQcrW+2J1bWYLGVbXoDk8uA2EYby5tWqzm+CV7Rxa9Vz7Oc8oW9uyvY9O3+NiCOv1CgBAGJRO6Kq5UdUayvFta0SRWmmk132vSa5/xJ0OL7SrE6Up25DRXOx6SsyPc4UcJ2HASdvzGUbndshkoW6E7Y7FybH6ddMe3hv/IZ0uYNvCcr0CABAmJRK6KjR3XkTjfa9oxKZUWcN8VY+d0Yk8h8Fg5vE6dMyOn8ML8/mGP99eIOM2TupOP18I2XpLzDf8YVqcwes+Syl4hOF6BQAgTEojdJVFFClPaGjIbt5QhaojFRofGvJt7pKTIUW5tvcuNfSu3PDUmNXcLHO5IZ3uOpkZTscSGs813I1jAAAgAElEQVSYR2VRZko91vM/qm9eo8W1mc9NFknVMZY5R8v7vLJcbUq+Hhl6RScS8w3H537uSrb3OdfjQnLS+2rmtBeoUDe0+Zw/uyFrTra12iaIYw7qXLrpcS1rWKFljRWmZ60+9+n5XmlWn52E4mOmz6KDeZjT4XoFAMAvJRG6qufNV9nYGY3Y3UTXzFdDeUL9tsHMOfOkfC+yDS90cvNQffMKNeiMTnTZBZXUDdOYsVxEi2+OaMR4Q1S7VC3lZ3Si66TGU0Fl8R3zDCFockGM7vSCGDVL1bJ8hTRxA5aef2XaV9tSlXk6O7k4aVNSWeMKtaSGUI0oFfKa5mnEh8VDcg1LcyPfwOal58DtsNmge2GC6EX0a5tc84mcvn9+9KzZ7ctJ6Bjvf0Xd/ZOPkyHMVCi1SIYMn7GyhhVatnyNKjMWzqhQw/IVGuk9qO4L6e2WanGN/eIaYb5eAQAotBIIXel5WjkW0Ph0RPKwgIaZlwU0/P9Hv0Jl5Ur2UNmUqr55aXKeW0a4GNLp35oKZvSQJTQylFBD4w0qU7KXamJYpnEFwgtn1D+2QpFIhc71JyZD7fEgVkGcylGbLI9PGk8kpNrJ48uXH/OV8r1GvA658msFvlxtKvXeB+OXIEZWvUuF6O0sxGIZ6S+zjJ+x8f4e9UdWqOHTEenC5Bc3I8YQNn5W/cPztdhUxtzesF2vAAAUU+hDV1nD/NwLaJTNU4PHBTTSjGHL7h/6fBYgcD4kKqFzZ4fU0LRULW3KOqywrFzS8Pu289ycKKuokMrna1nb/KkvVpRLSqisolwa+8C+t9FHTto0wRROzd/y+8HroihuFluxq8PrQhHZhqRZhYtSDk35yHbcuc6pnXzmNDmRfz3Jvx9Th2OnvpSJVKhM2YdqjycSUpYyXK8AAEwV8tCVmqfV12O/gEbksyobO5PX78jk+vbV6T/uVsORrG4Qct40pJdVTw0BSoYPqzkZPrEMdkVWxDb51bOQa6iZ0zrS5d2EA+N+/L45dbrCZ9h5WZGyFI/Tb2UV5vlik8J4vQIAUGzXFLsBtoq0gEYuLW1rJv4zMw63Sv+Xl/GzOtF1UN3Hz2hcEUVq0i8kND4mqbwi7zlV44mEVH5D7nrMZcry33febQpAthXxsr3nuba3Grbm5cYyn2/3zV8GZOvB9XJ8pczre+BW+M5Z8u9HWSRi+owl/57aD212Nvw5LNcrAABhEOqeLkc/dFwzXw3lQzrd788CGk64mQyejetVuMpvUJkSGhqbfGrk7BmNL5+vZTcnDCuJRbT4Zul0jpXFjMb7z2ikcalpcQ1TmaEPNN44Xw0NFRrpT0z0wGXOmzIGwWQInljtcMyi0jzbFJQgenByDVt1U4/Xbdyu+GclfOEhGE4W1XDzd8DrkOQgjfznkNQ0X4sbhibmdZU1NCfnbtoM1XZSJq3Y1ysAAGER4tDl7IeO0wto+DHkLtc3qn794597AQLzMs6S5VLO42d1oiuhxW2puV+S0kMQ3Ulus7htqWkOlWGf42d1ovcGtTStUEtjeptXVHbHCkUMW4z89qRGDPWM972iE4lmLTMUmrKcdXm6/cZjdNCmAOQ7xyrbNWSu2+kNpV8333ZDXZ0uiOFkEYRSnGtj1e5cx2G34INbTobgZespzetcXzip7uPztGx5+jMtTRnCPJ7szapuWqMWZSlj006v/LheAQAIk0/c1drxhyuXL+vq1at5VTSnulp+1JOWvDEfs5/DlOptGe+1X7rYDfMqZU4WUPCjZ4sbh3BxGjDsXk/zo5wTTgOfsazT69Hp9RmG69jrYjfFbrdbbtpc1rBCyyIfhGreZpDXKwAAYRPS0GX40VubYYNhvJEAgOKKaPEdFeq3+B0+u7+nAAAgOCENXQAAz2qWqqVpckzvOIELAICiCvGcLgCAJ+mfnAAAAKEQ7iXjAQAAAKDEEboAAAAAIECELgAAAAAIEKELAAAAAAJE6AIAAACAABG6AAAAACBAhC4AAAAACBChKwQWP7pKD+1bpfWbyl1uWa6Ve1bpoUdrA2mXb2p36qX2ndpgenrDzT/TzxuWF6VJ/liuHct/ppfaf6aXlj+slmI3BwAAAKFE6HJr5cNq+uFjmvO5YjekRJQ/rJ831auvd7ueN730fN8pad6mkg1eG27epFt1So8f+YruPv64uovdIAAAAITStcVuAKTTjx3W6WI3IhD36cnlS6Sz+/TQsMXLY4/rvt6deqnpq9oxfFzfHyt4A/Nwn5oiUl8vYQsAAAD26OlCYDbcvEaNY6f0dP/x7IWGt+sfhsp0a1PAw/PooQQAAECRhL6nq2LzE2qcm370kd5/7lFdfM9Y4m7d+MNWzVGWMp+7X9H7/1ijz/1K+vI63ViZev7cMfXufclQz1LN2W54XZLib+udnc/p4yntkG68/wndaFHOkdsbtP5rUd1genqw67B+9UvjM+VauedOLamwKyNduTSm2k13am1Tek7YsA5vOlXk3jPnPUHP953SquVL9H/VSt1WPWJ+OPq4+hY/ocb7n9CnDn5H7x8NaD8AAACASYhDVzoEva++7z6uRPq5zffruvdSAedz9yt6/yLp5Avq/cVJSdJ1X35MC6fcWF+vG+9fp4sHv6Peo0r2eqxp1Y0rX5ooU7F5nW7U23rnu9bhKbH3O+pVetvZFuHPhdf7tf/1/snHqRCWqVb37FuiuvOn9OSWVBK5d4kealul9TWvav++ybF4NzTdqbXnT+nJTcNKB7VVj9bq9GNBJRgHav+bGjWuN50MGRx7VW+PLdGi8uWSbHrF8pTY+x298+XHtHDNE5qz2By6AQAAgGCENnRd9+V7dGPlR3r/uXTgkqSTurj35MSjii8uUln8bb3zi8nnPv7Fr/T+59bpxsV36/2jkzfVF40h7Oh7urjmRl0fWSrppKSl+t+qJI0OOe+tCljtpqjqNKzDxuD0y1M6vGCVVjXWqlb9mnjl/Ck9OVFuTEdfH9aSts9osYYd93bdU3+77m8os37xwr+p4/QFV+1vKa+Rxt5Tt6N5Wsd1PrFJt376TrX0H3c3R2rlw2pac6P1axY9kB//4lH1vnW/ove3qml7xF0PpVHtf1OjBvQPRcy1AAAAKA3hDV3V10vxtxXP2puUDErj771lumk+qfh790ifi+g6yeEN9Uld/H9X6sY1rWr6Yav74YIBqJldLp2PTQlNp98d1qq2WaqRlPV+f/BDXdFnVHu7dPp1Z/v71cDr+tWA9/aazavIEuD8dvTxZO+lG+89p9h3k8NSF/7wMXe9lrU79VJTvTR0UHcf+bnb1gIAAGAGCm3oKrj0zXtqyOLCHz4hyTi0sYTUzZoyX6zQzibGpYrc5TIkPijMSoCp97jMS7ge3q67jyj122NP683jG0ts1UUAAAAUWmhD18cjH0lzZ9n0Vp3U/ze6TmWfu0XX6aShzFJVfu5670MF33tOse9q4sb8hpVSogiLLly4NCY1TR0iuHhBrZSIyW6wX21NuaQxDTvs5ZL8H17YPXZBD5d/Ti3lcjDEcLluqpDG/vM/XO1DkuvhhRPlpyyk4tLwv6tPazQ7eaoBAACArMIbun7xui4ubVXj9vsNN85LNWfzLYrvTT5OnH5fWrNIc7+8VLGJhTRSc8F+keciCTfNUpk+0uh50/PnP9S4blTVLUt18b2Tlpv6Yfjk/9KVpmjmghj3LtGqm6TBrv7sQwtvb9CfNpXrSq+71Qv9Hl6YDiWLapdLdkvGS1L5nVpULg2NeVhEw8XwwvQKlBdZvRAAAAAFFNrQJb2k9797Xr/bvi411E9KLwc/0XNx9HH1nr9f0fvXqWnputSTXoYEmpedn9zXlLk+7z2n2MGH1bTGsM8g5oC93q/9r4/pnn1L9NC+9JNjOvW3h3X09cnHw5cl3WQsY72sfOH9XL1Da/R/zvs/tKH/uJ63KbmhcYnKx07p/wlyUYqVD6txbpb3FAAAAAjQJ+5q7fjDlcuXdfXq1bwqmlNdLT/qmZFub9D6r31G//G3rxoC1XRwn55sX6PI2X26L1tvV+1OvdRUU4Jzo5LHpt6v6CFWMAQAAICNa4rdgJlo8aN3auXthsftUd2Q+F+OVxosHT/XQ70DKp+3ST9vWD715fKH9fOmeo2d/WmJBS5J+g9dGpMa5z2slmI3BQAAAKFGT1dRpH74OP0wEdOLW2zmaZW62p16qUn6hyPbM4YZbrj5Z1qVsOkFC71kb1ejJI2d0uPHHy/M6osAAAAoKYQuAAAAAAgQwwsBAAAAIECELgAAAAAIEKELAAAAAAIUytA1p7pa114b4p8QAwAAAACHQhm6pqOWtjXFbgICFtR77LRev/afrR4v9Rf6us+1P+Pr0+kz6ed75odC7tfNe+5mO6vyuf7zo71u2xRk/QAA/9CdBISQ+cappW2NursO2m7T3XXQUTknZYJgdzNo1R4nN4+FPg43N7R2bXNaT646sp23Yry/VqbDe+50327e0zB/TgEAwSB0FQD/eCKbbDdqbq4Xq4BmrMf8eqGuRfN173a/Yf3MmNtl9fnOdQPuxw231c17GP7WOHnfnV73+R5PGM5HWlCfUye9XWE5BwAwk83Q0BXR4ralUu9Bnb6QT5mp8hnKUrx/GCs0944Vahg7qe7fDvlffdk8LVs+X+Muz2VZwwota6yYeDze94pO9Cf8b18Ref22P1cdXsr4ya+bXbc9JbnqchOOivV5dHPuzOWcXE9BHpeXAOqmLievmfdrd/xuz00+Q/f8/pyWQk8nAGDSjAxdZQ3zVT12RidsAoCTMlb8/qZ2Jhvvf0Xd/VI6AJcVu0EGbsK1l2DlZVhWPj0e2b6FN38Db/52Pltd6df8uP5znT8v+0hvU4zPZ7Z9G895rjbm6t0oRi9Ytvfd6/XvR9uznTev4TDf4YVh7JkEABTGDAxdFaqOVGh8aEjjeZXxjn9op4d8hpl5mauTqy35BAm7G0GrG+kw9hDZCePiBVbvldOwmi2YFfNvi10Id8PqGIp9bH7x672yG6poflzq5wwApouZF7pq5quhfEin7YapOSnjwHS4SUDw8pmTke1my6rXxCzoa9NpSMvVHr9XY8v3c+nHnC5jXV57P8IaTnL1cuXa1vi/dnX70T4v2/qxXRCfUz+GKgMAgjPjQlf1pyPS8EmN5Fkml8L9Y5cceldtfGrYYm5Wal5VmU2Z8cRY5jyqsTM68drZzN4+cz1WZdJzxMozmzBRxnKOV2oIoZd5WznbNDk/r7/COE9sSKe78nuf/WJ30+2mVynbDaWX4X5+3px6HXbr17ww4zDJXAGp0IHFybwsM7vzV8yer1w9MGa5jt3NZ8Epr0Nfgw7qTttmvp6NzwMAwmtmha6yeWqolUZ6bRaLcFImB/M/ivn0ZNir0Nw7lqraKmQZ1SxVS1NE432vqDsdaGqWanHNUMbCFmWNK7Rs+KS6u4aUDirLbk5M1l2zVC1N5eo/flDnUomm+uY1WnaHDCEnFQKHT6r7tdR2qVAUCEdtSj3ftCY5T6/rrMZTwXDxzZFgFg9xKWw3UPnMy8p2U+ilDbk4WfggV5li90Z76enKVb4Yc0ut3ncn8w/d8Npzlq2uXG3J5xoO4nznCttW5QEA4TCjQldZ5LMqGztju4KekzJ2CnsDVK7Kcml8aMymTESLm5I9dxk9SBdO6rS5aEZ4G9LQsFRdXqEyDSVDyrxkcDtnSDIjZ89ofPlnVV12VufGUwuQaEinCxJknLXJ+vgSGh+TNHF8xeW1p8vq9Xzmc1j1BrkJUH7f3OdzXszb+8WvOV3p7bwMEQzbHB63QywL1V6vwz6zbW+uy+2XEdke5zOEMFv9AIBwmUGhK6KGxgqN99ndYDspY6+wNzxD6u9LaFnjCrU0KsuwwgqVSRr5z3xDUDLglaX3ZVJZLmlcKquokIbPFGjInrM2pY0nMsPpyG8PqjuPvft98+21Hi/zgbLtP1vAchq8it1rVAh+zelyOkTQrg25gmihhhjaDZUzC1Og9NKD68e+gnhP6OkCgHCbOaGr5sZkD4ztAhoOyoTMxLLqNUvV0rRULW3KMs/Kp/2F8LeyitUmv26+/egJ9boYQ7Y2ZKs/7HOE/NiHVJjwmGv4ph9DJ53KNt/Nj3rd1hl0OPGT22sn38+p27YAAMJjxoSuQi2gUTQXTqq7S6nwZRhaN57QuFI9UBfyCSZjio9J1RXlknLUYx6yV36DyqQAQqCLNvnMj+FAkv0qbU7rKuYqdkHvw8nwwnz3X+yb+nzeq1xz74oVltOC2nex37O0fHvK/Dw/9HQBQLjNjNBVNk8NtQn1H8+1gEaOMiWgrKJc0pjGJxLO5BDExQnDaoE1S7VYJ13MXUvo3NkhNTQt1bKG7D1LI/85JDXNV0PN2WTdqUU8MkwJgpMrMLoLZs7aFGb5LjSQzxA1p4x1hOVmtxiCDC5e6jWGLa91GOsK6gbdj+vPa31+HVO+4bUQn1MAQLjNiNCVXBzjA43Y3NE7KeOFHz0ZWZmXSpdktQz6eP8r6k4sVUvTGrWknxw+qe7futudLpxUd+9StTSZ5lAZhzNeOKkTfSu0LL2vsTM60fW+GtqWZraxd8hQT0L9x19RvGmFjPGs+uY1WlxreGJi7pbhGJ20KYTcLo5hZF7kIl3ez3Bl91x6v15uaP1cfCCfeoPitB1+hgEp9+995bqxD0uvaL49vLm2tbqe3JwbrwHJz8+puW1W/9+qTBg+HwAwk33irtaOP1y5fFlXr17Nq6I51dXyox6/63L2+095/EaUjbDcCKIwiv1+O5kv4mQRAzc3iF5u5N0EEz/nx3g5H27LuS3rtb5sN9K5QkSxw1W+11Q+Zb3UYXcec3Fap9frsth/bwAA7kz/0FWzVC1Nsv8RXCdlAAAAAMCD6T+8ML3ARL5lAAAAAMCDa4rdAAAAAACYzghdAAAAABAgQhcAAAAABIjQBQAAAAABInQBAAAAQIAIXQAAAAAQIEIXAAAAAASI0AUAAAAAAZr+P45csqLq3PqgmirTj+Pqff77OhArZpuKqVb37FuiuonHYzr1t6/q6OvGMuVauedOLamYfGaw67B+9cuCNTJ4kR8rsW6hrnvhC7puyPB8099r9LYR3fCTb/BNCgAAQMgQunyTCknq0f7dL6rP/HLrZu1cPdtFcIrpwO4tOmDYduYq18o9S1R3/pSefGw4a6nFj96pJYrpxU39yl7Kr/bcqSWXs7VnavhLyy8Efk+/W7dM6vmbzMAlSb0vqfy2b+nK139M8AIAAAgZQpdvYnorFldTc1S3RKU+U7BqWVgvxXv01oztqcrD7bX644oxnfqlXZSq1cKbpMGuoAOXCzlCojvr9PHXv6SPBv5RVb9+weL1F3TdT/5Yv3/4Sxr/wjpVWJYBAABAMfCFuI/6emJKqFKNzVHTK21aMFdKxN6Y2gOG3Opm6YZcZW4v16xCtKVIfv+FDRq7oV+Vv/xrm1J/rU8d7td/NW/Qx5GCNQ0AAAA5TP+eruhaPbIhqr7nX5Q6DXOkzh3S9qe7Moq2bNyj9rmTjwdf3qJnjxle09RtJKmxc4fWR2Pav/sN9cWb1RS9TY2KTQas1kWqU1y9PcZurjY9sKvDMEcpc38ODy45pHE0s10tG/eovco0zDG6Vo9saNbEiLd4lmGQhXR7g9Z/LToZqBIxvbglwJ6qe5foobbaycdZeqIWP7pKq25KPzLMHTO3t2KJHto3uZ27oYPJIYh/3Peq/kVLtLapPPX8sA5vOqXTGWXX6WpjpT7Z83zuD2xqmOHYiu/pOsuANk9f/auv69ZZcb359C799F2n7QUAAIBX0z90SZIq1bThQQ2+vEXbjyk1R6pDD7R2pUKOIbxsS4WX6Fo9smGPHpAhCFVF1ChNCSp1cyql0SH1KSZZDDGcOrQwqs6ti/Tuti16NvVMY+cOrV+9Q53nA1gsY2I+2ZaJuls27tH6rSpe8Lp3iR5qK9epvz08sRjG4kdXae0epYKXeeEMacnXVmnJ11IPzp/Sk4+NTZk7dUPbKj3UlnpgCHG1m+7U2qYxHd50OBVokqHnoUeNwSs9F8sYfMq18tEG1b7er+HX+7X/9X7lntPl3A1Nd2rt+VN6ctOw0ouFrHq0VqeN9Ubu1Mc3SNeOOBky+IKu7dsgNX5Wvxdd2QAAAGEwQ0KXqRfp2NsaXF2vqpqopJjU2qGmygEd2W3oxYq9qNfONat9YZt0rEuDF+NSVeq1id6z7+tALKraKikRG5CUGmLY3JwcYhiLaWJoYY9xaGFMB3bvzWhferuqm5JN8k9Uncvrleh5JiPMdR/p0R0brOefZVX9eR36fI31a+N9eu6NAf3KUUXlWnl7ra70Zq4+ePpITLd97TNafHu/hl8f1q82HU6+MBHQzKsVSke3HNZRaaIX6kPL3qZarWgq12DXq4YepDEdfX1YS9o+o8Ua1mlJtZuWaEnFmE797anMco/1OzqqKW7K7Amz7MXK6G0b1jvnpbo/KletNNnjF6nWf6lfn+p1tttrRkak5oW6GtHUBTd0Vj/9v7fqp26PBQAAAJ7NmNBlp7FmtqRKte/ao3bzi/FU79aFS1Lz7GTPS3NUFem5W6nAMnoh9X9ipiGGlkMLlep9qp/SllFfj0yS6lVVKVU0P6idzVNfdRXyRv5NHa6GP2ZTrtkVyV6ezFCSNLtO0utTn/csNd8roxdswphqb5dOvy7VzC6XEjGd9mvfPi2k8fvqakkj+bcHAAAARUHomjCgI9v2qjvby+cvKaGoaqOS5ki9L/eocfltatSQqiqNBdOrGCYDWp3VqoWpwJXoeUY/SHc/peZcBSVjXyFxpfdV7d83VrD9lepvdl0z4iVwjeiaKb1cAAAAKAZCl1K9WJqdDFTZcklsSKOKSmrTgqqYjhx7Q1q+Vre0SlWKq++8ob7UUMEFrW3SlKGF6Z61Ab1WkBA0oNG4VDenXnmPW/RteOGYLiWkutnlkgoQul4f04dfk2bV2O/vwqUx6aZZqpHCs+y8JA2N6JNapqtN0rUOhhj+vrpauvIO87kAAABCgvsySTp2SL3xSjVt2KyWrIUGNBqvVGPnXaqKvaE+xfRWTGpaHpV0ScPGPBN7Q31xqW51h+oUV59paGFGyJOmrizoWEzDo5pY4EOaugKjFNOB4wPS3A490mleyt6lkX9Tx7Gj1v85DlxSej6Vblqi9ZvKcxfP27Be6R3TDU136p57bUrti2lQtVq1p0GTaxymFtLIKDmm4cuSbvqMFgfU4gxDr+q6K9JH87/noHBypUNd/iDLh3uevvpXu/XUj3brO1PG0gIAACAI9HRJSi5s8Yy09cEp87omF+BIBpymuZqYn5Xu0aqIxzRoqi85xLBSisem/iDysb06snCP2jfsUZMkKa7e5w+pakOHodDUJeWb0uUNy913P31IC3Z1aP2u5NDERM8z2n9xrdYb89Wxvdquzdq52jSvq5jLxv/ylJ7UEj3UZprXFdCy8cP7XtWLm+7UWvO8LtNCFr/a9KpW7rlTa/elT2ByyXhze04/9qpq99ypVftWaVXqueCGL6ZWJGz+gj6O/LXF4hgGTXdr7Ia4yv8p2+95ndV/jkqaJTV8fqV05GgA7QUAAIDRJ+5q7fjDlcuXdfXq1bwqmlNdLT/q8bsuYHpYp4+//i2NXf5HVWX9geTv6XcPf0lXe/5GFb+2WV5+wV/osY1/olkDL+ubTxK6AAAAgsbwQqAkvKDr/umEPln/JY3eazXMcJ0+/vqX9NGVEyqzC1ySvrjmTzRLcb15kMAFAABQCAwvBErF0DdU8cKPlVhnMcyw6W6N6YRu+Mk3sn6TMv8vt+mbt1ZKOqd//vY+/WsBmgwAAACGFwIAAABAoBheCAAAAAABInQBAAAAQIAIXQAAAAAQIEIXAAAAAASI0BWwlrY1to/dbp8vq/q87iPftvl5bH4dl3Ebv9rn93s4HWQ7J27OlR91+Lmt3fZcAwAAzGwsGV8E5huw7q6Dnrc1c1NXPtLtaGlb43mf3V0HHW2fzz4Kza+2urlJz7Y/c1uc1GlXVz5tsWpPrucLzep8OWlX2I8LAAAUH6GrgKxuwrx8A57vjbGTXqFsN5FO2uF2/8bH6SDmZT9ej8tPToOk07pysXvPrdpiFypy1ZWrHbnKWLXH67nyO9BY1ef0vfTzuAAAwPQ0Q0NXRIvblkq9B3X6Qj5lrGULV06eC1K+38jnukG3es6qXrf7ysWvnga3oZib6iQ359kq2FjVZ1fG2MuarZybsJ2tPuPrToJXrv0V+gsAAAAQHjMydJU1zFf12BmdsAlTTspkY9fDkH5+un4T7rTnJOw9A/m8T34fh9Mw67QtVvPWnAwLzNYz5uTazhXS3fYW2QUxt73J+VyHfh8XAACYnmZg6KpQdaRC40NDGs+rjDfFCly5FvQw3yjm2t7JNnaM5yGf85HvcWXbzo+25HrNzTG7nZvlpC63593JlwlO9xmGLx+8LHqRrUcrTMcFAADCZ+aFrpr5aigf0un+RH5lcnCyuEGxb8ychiursvnMxbF6bNVr4qS9TtqarT67Nno5NjdDHINezS6fQGwnn56bfOZNOeElROba1kmdQR8XAAAofTMudFV/OiINn9RInmXccjKMy21dbspbLVDh9cY/n8DgNLw5CaZ+HZe5nlzD00rhRjpbePXjGnAyf8ks11BBP3qIvH6ZYTffMlebCnFcAACg9M2s0FU2Tw210kjvUH5lHAqytyHX/ozPOZ0Xk62ObIo9NMyP4/KySIIXYbnp9mOIpZeerlzl3fak5hoC6LX3zSp429Xn93EBAIDpaUaFrrLIZ1U2dsZ2NUInZZww9544mT8SxM2Y3/OY/Ji74nXelZFfxxXkDbDx3ISptyOfoZteh9L58Z6b92lXfy7ZhrNmC1HZekL9Pi4AADA9zaDQFVFDY4XG++wWx8eL21MAACAASURBVHBSxl62IWpe54sEqRhzjcz7DeIcFOu4guR3+70szOF0KJ3d/rL1LDmtxym3vZe5eruy1Vno4wIAAKVp5oSumhtVrVwLaDgok0Oub/vDdNPlde6Tkdfj8boYg9O6/eSlZ8jPc1WMeYB27XAy1C5bG8J0/ZvZzekrpc81AAAInxkTuoq1gIZR2L7t9nvuk932uery89z43dPlZfhkWN5jyXrBkXzPh9djNG5nt4BFIc+h3SI3XuaGheW4AABAeMyM0FU2Tw21CfUfz7WARo4yPghLr4VbXuZaeVnYo9RvSsPYY+dXj1u+ddjNn3LLz8+AXUh30kY/jwsAAExPMyJ0JRfH+EAjNhO1nJTxS7435tm2ddrLlKu815vHfObA5CvI43LTBifD0Jweux89i15W8POyH6eM74HdEFOnc8Sytc9Lz1I+i2D4dVwAAGB6mgGhqzALaLiRz42X3TZ+3cgXQq6bUy/1FZPTZdP9DFxuyvmxCIZT2Xo4zXUZ9+tmyKmT+WROzrXVYhdu+XlcAABg+vrEXa0df7hy+bKuXr2aV0VzqqvlRz1+16WapWppkk532czVclIGAAAAADyY/j1dF06qu8uHMgAAAADgwTXFbgAAAAAATGeELgAAAAAIEKELAAAAAAJE6AIAAACAABG6AAAAACBAhC4AAAAACBChCwAAAAACNP1/p8uJ2xu0/mtRfdh1WL/6pYvtmv5eo6ukysf/fBqcyDY9sKtDdROPB3Rk2151F7FFfmrs3KH1zZUTjxM9z+gHB2IOt7sUyLnw2ibPIj9WYl21PjUtrlcAAIDSQU+XV5EfK7GqQdcfLtYNbJse2LVHOze2Wb7a2LlDO3dtVovj+rr07LYt2r5ti/b3xP1qZGj0Hfi+tm/bou3bDmnQYx3Jc7pDnVGrV5PvxyPWLwbWJleGvqFPDTQo/vDf62oh9gcAAABJhC6PvqffrVsm9fyNPtVbrDZ06d1zkuYusghWUd0SrZTOvT1teqrCoK8npoQq1dhsEaxaF6lOcfX1BNhT5YNrf/k3Kr/SoPi93yt2UwAAAGYMQpcHV+/9kj66ckJlv36hqO3ofmdAUr0WtJpeiN6mxkpp8J2uYjRr+oq9ob64VBG9TY2ml1oW1kvxmN4Kd+aS9IKu+6cT+mT9l/S7pmK3BQAAYGaYOVM7UvO2bkg/Pn9KTz42bCgwpkuD5Vq5504tqchWRpK+p6v10vWHv2GZWFs27lG7Dmn7O4u0c3V96tm4ep//vjKn60TVufVBNU1M6TGWSc6v0stb9Owx8x6S2zXGntEPDrytwdX1qlvYJh2bDFiNzVFVaECvGbdt3Wxoj+RpzlZ0rR7Z0KzRjHYl21plno9k3t+5Q9r+dFAh0HwupUHLc+ekquQxVmQ8eSn1vzG9FYurqTmqW6JS38ThtmnBXCnR84b6bNrkZc5Wy8Y9aq/q0f7dL07UbT3PzO56Mhn6hj41cELx236s63qtr+P5f7lN37y1Uh+++RM9+ndnXbUZAAAAmWZG6Lp3iR5qq9WV3lf15L6xiefuuXfYsHBGuZZ87U4Ndh3Wk79UKqQt0T33mhbXaGrSR4qrfMhmf3M7tLOqR/u37VVf+ma4c63emrhxngwq29N3xa2btXPDDslwo1xVE5VkvmuuV1WlNHohJimmd891qG7uIrWoK3UDnh5a+JvJG/LoWj2y8G1t37Y3/YQ6tz6o9q1rNWi4mffLZCjYMtGmzq0PaudGBRC8UguAnDuk7btTdbdu1s7Ve/RIjcuQkwqKgy9v0Q+OGY9lskhfT0yJ5ubkEMNY+r1LDi3sNQwtbNm4VjqwRdtjxrof1AMXPIZBW86uJ6Nrz/RLq6r1e9HdDQAAELQZcL9Vq3vaaqXzp7Q/Hbgk6ZenpqxUOGhcvfD1fr1xXqpbUJtR5vfV1dKVd3StXeiKG3smkr0jqpw9sTJgY+ddqov36IDxbvjYIfXG0/OFBjRqWMuisXOHdm5dmxzSFo2oSnGNnk++NmWIodXQwtiL+kFG2JnaJv+0qb25UoMvG3thYjpwfCDL/LP8NHbepToN6Ijx+I7t1ZFz1sMAs4uqc3m9dO6QfSiyGGJoNbSw+2lT2Dn2tgaVDtL+yn09WRga0SfVoKtZhhie+btd+ua3t9LLBQAA4IPp39N1e7lmSRp81zxMMLcLl8akxnLVSkpv/fvZlXabOFI3p1KqbNb6Xc1TX5xTL6lLw6NS05zk8LxbopVSZWpImyTpkobT99fHMocYWg4tVGqY2lzzzi6Zn8hfNKIqSRWr92jnavOLcdVadd7loW6OqVcvpfudAbWvToZKZz15yR7EweO5euLMQwythhYqyzBFKeGoLe7kvp5CP9EMAABgWpv+oSsPNbPLpzx3zaW49Ec+VB7PnKdjNngxLkUjapRUpR4d6YnqjuaodGG26Ua+KznEsCqiRquhhUoHrsw5PuZhc37zPKeqBKSHGFbdJOmmqUMLJwJXxjy21BDAoBqV43rKspGuseuxBQAAgC+m//DC18f0oaRZNVMDlL1y1f6RpMtjMvaRXTMyIt2wUFcj3ps0eDH30L6+C6leqNZFqoq9oe6emBS9TS01s6X4pYzfdep+ZyDZE9ZqtWphVLVVks79xnpRBb/FhjSqYIbRWRm8GLcctpgc8nfJ9e9fmdtdN8eiZzM1xLBuYZv1qoU3zVaF4uo9UpjVI51cT1NEqvVfGiF0AQAAFMD0D10a1iu9Y7qh6U7dc6/h6XuXZD42qd20REsqxnTqiGlYYm+vrlelPl68znOL+g78RoOqV3t6npaV85eUqIyqc/ns5G8/xd5Qn5p1R1TS6FBmj8axtzWoSjWtblaFBvRuRg9TTMOjkqoiE/tK9nJ5GCY5JVClFrHIKNSlIz1xVTQ/qAfMS9lbSP7gcPYfec4l+dtZ9Wo3bt+6We1zpcHjbnp+kr97VtHcMRHgrIdkShNz4uZ2qH2ulIiZhhaev6SEKpM9YZKsz5Mz5kBl9d45up5Mrs5vkK6MZP0DMP8vt+mpH+3WUw+t9NBqAAAAGM2I4YXD+17Vk/cu0UNtq/RQ+t78/Ck9+Vjq/78+pg+/JtUZX9ewDm86pdNTavtrXTvwJX3UfLeu/voFjyewS89ukx7Y1WGah2MYAhgb0qiaVaeeVC9Kei5RpRKxgSn1JVcxlOUPInc/fUgLjPuK92j/y7O13jjnasocpEq179qjdhmXOu/Ssy8v0s7VD2pnc7q9z2i088GMm/2+A9/Xfu3QevO8Lotl45M9epXS3LvUGe1y3xsXe1E/2DakB3Z1aOeujtSTcfU+vyWjrikBqjl9DJNL53c//Yxqtz6Ycdzb3+mwmJs2OcSwwuoHkWMv6kBPNOP4B19+Rr3LM8+Tkzb1HXhRvdHJNuncIW1/eZGpTQ6uJ6PIj/U7m589kKQzQ6OSKqX6hfqijupfs5QDAABAbp+4q7XjD1cuX9bVq1fzqmhOdbX8qMfvuoLxPf3u4S/pas/fqKLIP5Bc+tK/L+Xhd8PgwTp9/PVvaezyP6rql39tU26evvpXX9ets87pn7+9j9AFAACQhxkwvDAIf61PHe7XfzV/S4kveB9mCEmtHWqqlBI9hwhcBXD13m9p7IZ+VdoGLkntq3XrLOnDN18mcAEAAORpRgwvDETvn6tKf6/RVfkMM5zJJuc5TeeVDkMl8mP9rr5flY//efbrdcFf6LGNf6JZkvr/ZaueOFLA9gEAAExTDC8EAAAAgAAxvBAAAAAAAkToAgAAAIAAEboAAAAAIECELgAAAAAIEKGrBLS0rQlFHbnq83sfhWbX/lI/NrNiX1OFPJ9u31fzc4V+77Ptz007+LwDABAurHTus3xuRLq7DmZ9vqVtTdbXjfvOVcZY1ktbwsTLuc73uLKd4yDe93y5uR6Kxe68eT3PhT5mq/Ps9riCNh0+7wAAlDJCl8/sbl7c3gTbfeOeDmJO920lW3mnAcLJt99B3sz5ea6N29nVny0A253LYt3QOg3rXqTr9VK/eRs34coq3PgRpLO1wwk310Suz1aQ10upf94BAChlMzR0RbS4banUe1CnL+RTJlhObmCK9a15thvKUr3pMrc9bD0VQbA6RifHZjxXboOX214ht3U5ec0sXc7YjmxfeAT53qf3YRdkihFypuPnHQCAQpuRoausYb6qx87ohE2YclLGjpt5GW56bLjRyS2fXi67G9xS/Fbfzc2yk/CTrUfH7fBXc3Bz2xY/PhfZety81O3XkNNsgdTPsAoAAApvBoauClVHKjQ+NKTxvMrk5mQolJO5FvkM5fJbriCSa3heGDkJA2E49/nI1X4nr0u55x3mKmNXt1P5BD+7ffv5/pbytWI0HT/vAAAUw8wLXTXz1VA+pNP9ifzKBCzbzY35xtbrEDE/+b2wRD7MQ8Sc9r6k/9fq5t2v0BuG4Oamtyldxvi6k2GXucKXk/3atd+uHU7Psfk9bWlb42h4obnNhQgdYbhujML0eQcAoFTMuNBV/emINHxSI3mWccLJxPNsnC4YkG1IlNf25SpvtYBHWG64zO1zEpS8zk3ywsk+8jmXuUKOl+NzumCI0zJur51c+3czF89NvU45mQ/mZP9O95Fv6HdbPsyfdwAASsnMCl1l89RQK430DuVXxiE/hhcGyc1wL7sbvjB8820XSp3erNr1crmty80+zK8Hpdi9JVY38X4v0OB0O6uQZBUwvNTt9AuTXO2yqjeIc1OKn3cAAErNjApdZZHPqmzsjO1qhE7KFEqY5k8E1TvjBye9WW4XeghSIXrVnAYbp+fFrXy/cAj6WrfrPSpmqAjLlzJh/rwDAFCKZlDoiqihsULjfXaLYzgp41w+wwul0lnIoZg3qfn0YuWqx88FGwrNyRwst3UZuT0HdkNj3dYdpi8jzOzmmpl5aWuxjy9bGwhiAADYmzmhq+ZGVSvXAhoOyjiUa6iaU37UETQvN1y5FltwWocf58Jp4Erza5hhseQ7ZNLPazDfeWZBfB78nlcXxs9sPghYAAC4N2NCVyEX0Egzr46Wb+Ay1xkWxfjm249FIeyez1V3mM5/IWU7716vyaCu53w+a/lcz9m+JAnbZzYf9HQBAODezAhdZfPUUJtQ//FcC2jkKONBrsn52QTd05LeR7F4PS/G7f1iPJe5ehZL/eY5nyAf1DXp93Xsx5cbXtuR7yIsQX4mCUYAABTPjAhdycUxPtCIzUQtJ2XcMg+hczP3xG6iv1/crGZmVybXPJZSGnJlvjnO9biU5BOa0u9lrmsjn3PjNZR4nRuWbXuv4SRXOHdy7eRqSz49Z8X8vAMAMNPNgNBV2AU07IKV+abMLNswtyB6W9zc+HktE+T2finVAOWUm/BudzNfiJ4ap6HEr8VT0mWcPJfruMxfrOQKt1ZlnLTF78CV6zU3ZQAAQHafuKu14w9XLl/W1atX86poTnW1/KjH77pUs1QtTdLpLpu5Wk7KAAAAAIAH07+n68JJdXf5UAYAAAAAPLim2A0AAAAAgOmM0AUAAAAAASJ0AQAAAECACF0AAAAAECBCFwAAAAAEiNAFAAAAAAEidAEAAABAgAhdAAAAABCg6f/jyI5E1bn1QTVVph/H1fv893UglnvLlo171F7Vo/27X1RfSNqEILXpgV0dqpt4PKAj2/aqu4gtAgAAQLgRuiRJMR3YvUUHJKl1s3aunu2hjlRIUpYAlqrXeXDyo02YCEnnDmn7011TXm3s3KH1zZdcBKcuPbuty7Ctr40FAADANMTwQt/E9FYsLlVGdUt06qstC+uleExv0VNVYF1695ykuYvUMuW1qG6JVkrn3qanCgAAAIEhdPmoryemhCrV2GxOXW1aMFdKxN7weQginOh+Z0BSvRa0ml6I3qbGSmnwnak9YAAAAIBfZsjwQvP8KGnw5S169piHqlo3a+fq+szn4qn/jb2hvnizmqK3qVGxyYDVukh1iqu3x9jNZZ4b5KVNqeMazRw6ZznPLLpWj2xoVsVEm4OYh+Zcy8Y9atchbX9nkeF8Ws1bs5vbljyHsjxvye0aY8/oBwfe1uDqetUtbJOOTZ6nxuaoKjSg14zbTnl/PczZSp3r0Yx2Jdta1fOMfmA8QPP+sgyDVPsmPfWnc6WBl/XNJ4+6aQ0AAACKbAaELsOcnt2pm9nWzdq5eo8eqTHdAOeQnsPT+/yWiWCQDDjpEskhhk3NySGGfekyC+uleI9haGFUnVsX6d1tW/Ssse7VO9R5PoDFMibmk2W2e/1WFTV4aW6Hdlb1aP+2vepLh6vOtXprok2TQWV7uuGtm7Vzww7JEM6qaqKSzCetXlWV0uiFmKSY3j3Xobq5i9SirlSASg8t/M1koIqu1SML39b2bXvTT6hz64Nq37pWgwGcp8n5ZFsm2tS59UHt3Cjr4AUAAICSNO2HFzZ23qU6DeiI8Sb22F4dOSdVRG9To+Oa2tTeXKlEz4u2oWjqEEOroYUxHdid2XuS3q7qJscNciiqzuX1U9rdfaRHiSzzz7Kq/rwOta60/u+2et3jtmkZvW3pOXGzJ3r/GjvvUl28RweMDT92SL3x9Pkd0Gh88qXGzh3auXVt8j2NRlSluEbPp47XPMTQamhh7EX9ICPsTG2Tf5LX0+DLxusgpgPHB6znnx3Zp29+eyu9XAAAACVo2vd01c0x9WakdL8zoPbVyZtpRz0YqZv4vp4c3VDmIYaWQwtlPUxR0qiTtriS7PGpaH5QOy1W2qu6SVM7ibIZ+Td1eBmS6VHdnEqpslnrd1k0fE69pC4Nj0pNc5Ln8ZZo5cRCJsn39JKG08d2LHOIoeXQQqV6Luead3bJz8NKikZUJali9R7tXG1+Ma5aq847AAAAlKRpH7oKLz3EMBno6qYMLdRE4EoY5/ek5gEFJWGeS1Qqcsw9G7wYl6IRNUqqUo+O9ER1R3NUujB7cv6apOQqhh2qq4qo0WpoodKBK3NeWdDLwnueWwgAAICSMe1D1+DFuNRsnMuTlJ5nNeiqtkpTz1BUtVVTS/X1xJRobtaC1jZprpToyVy1sLFmtqQBvVaQEJQcglc3p155d51Uf16HPl9j/dp4n557Y0C/ym8PGQYvxqW59r2RfRcuSVFJrYtUFTuk7h7pjs7b1KLZUjyW8f4mezejuqVVyaGFx41DCVPv5bnfFOYHqGNDGlW2+WgAAACYTqb9nK7kXKl6tW9sm3yydbPa50qDx10sjhB7Q31xqW55as6QxYqIU8qu7lCdxZDEvguXJM1ODiGTpq4s6FhMw6OSqiITc9OmDo9LzxPq0COdbiZwWRj5N3UcO2r9n8+BS5L6DvxGg6pXe3qelpXzl5SojKpz+ezkeY69oT41646opNGhzPf32NsaVKWaVjerQgN6N6OHaeq5TPZyWb3BOWQEKslqpUqpS0d64qpoflAPmJeyt9K+SU/9aLee+qu/0Hz3LQIAAEARTfueLsVe1A+2DemBXR3auasj9WQ8YyU/q5vipg171CQZlvCO6cDuQ6ra1TExx2jw5S3aX7ND66dkmfQQw0rrH0Q+tldHFu5Re3ofiqv3+UOq2tBhKOSkTVL304e0wNCmRM8z2n9xbWabju3Vdm3WztWmeV1FXjY+ty49u016wHB8SYYhgLEhjapZdUoP4Zw894nYwJT6kqsYyvIHkc3nUvEe7X95ttYb51xNCciVat+1R+0yDuHs0rMvLzKc77h6n39Go50PZoTHvgPf137t0HrzvC6rZeMHL+lDzdWsWfO0fIF05l1HJxAAAAAh8Im7Wjv+cOXyZV29ejWviuZUV8uPevyuC5guvvjQbv1ZfVxvPr1LPyV0AQAAlIxpP7wQmBYW/IX+93pJA8cJXAAAACVm+g8vBEraSn3nR6vVIOnDN3+ib/7d2WI3CAAAAC4RuoBQO6onvs0PIgMAAJQyhhcCAAAAQIAIXQAAAAAQIEIXAAAAAAQolHO6Lo6MFLsJAAAAAOALeroAAAAAIECELgAAAAAIEKELAAAAAAIUyjldkqTyh/Xz5UtULmns7D7d13+82C0CAAAAANfC29M19rjuO/IV3X38lDRvk56sLXaDAAAAAMC98IautLHHdXhIaozcV+yWAAAAAIBr4Q9dAAAAAFDCwjuny5WV+s6PVqtB5/TP396nfy12cwAAAAAghZ4uAAAAAAjQJ+5q7fjDlcuXdfXq1bwqmlNdLT/qsVS7Uy811ejN4xv1/TH/qwcAAACAoJRGT9fwdt19pFuzl/9ML7Xv1IZitwcAAAAAHCqJOV0tDU/r4XkX9A9HvqKHit0YAAAAAHChJHq65lWUSUP/rueL3RAAAAAAcKkkerpyS69eGNebT+/ST98tdnsAAAAAIKkkerpyO6eLH0pSpebfOq/YjQEAAACACdMkdJ3VT185V+xGAAAAAMAUJRC67lNTRBpL/IdNmXn66oq5ks7pf/zd2UI1DAAAAAByCu+crvKH9fPlS1QuSUMHdXf/cctiX3xot/6sXtKH/1NPffu/60wh2wgAAAAAOZTGjyMDAAAAQIkqgeGFAAAAAFC6CF0AAAAAECBCFwAAAAAEiNAFAAAAAAEidAEAAABAgAhdAAAAABAgQhcAAAAABIjQBQAAAAABInQBAAAAQIAIXQAAAAAQIEIXAAAAAASI0AUAAAAAASJ0AQAAAECACF0AAAAAECBCFwAAAAAEiNAFAAAAAAEidAEAAABAgAhdAAAAABAgQhcAAAAABIjQBQAAAAABInQBAAAAQIAIXQAAAAAQIEIXAAAAAASI0AUAAAAAASJ0AQAAAECACF0AAAAAECBCl4WWtjWunoe/SuU852qn8fVSOSYnCvX5mA7nbDocQy6lfoxuPsd+lPNDoc+51f68tiHfttttH8R5KfXre7oL6v0J2+fej/b42dYgP8fT2bXFbsB05eaC6u46GGBLwqulbY3lsXd3Hcz6ml1d5jrsns+1vZVCv09+XUNO68lVh9Xrbt+nsPHyh9/N8Xq5lsPIfAx+HlOu9yDocxfUe2R3XHZ/h5x+lu3K8u+PtTD+nUdx+fXZ9+Pf2Vx1FvvfkmK0x+rfnlzC/HeR0JWFm2/zs7055uetLtCZmvYl+5sdLxd8rqDl5Sao2Py4hnIdm5M/nFbvlZc/uG4+P4Xg5HjcHKcffzfCKMjwGFSY80O+7TH+7XH6d8iurNvAn4ubf3+c9HY5/duUb/ixuxFL/3+ra9bJ31NMf8b33a+/bfleW378G+Hk/sD42G04KfTxpLex+xy7DWXFvi8vqdBV1rBCyyIf6MRrZzWetdA8LVv+WQ0df0XnshbKLte3h2H9A13WsELLGismnxg+qe7fDmUWqlmqlqbI5OOxM/bnsoDC8A2kn6HM7Qe5WNeVm2vaXC5bQMlVxu23VqXG882u+fNp9Rn+/9m79+io6nv//6/6RYRMQpqQZFBIMCECfoMJUC6CPwsYgnDqt9oFtpWyqnK80S+uohxsFbFLqXAqB7VLVvFWrF1U2wLr9Hjar2hAQL8HyqVcIhy5hKQhYE0IhJCZBGm+9PfHzCQzk7nsmdl7ZpJ5PtZyyez5zGd/5pI9+70/7897kkiw9Fkjn4tAbRN5fDV64SwREj2GWC5GmB3k+Aek3ifOoe4P11ck91knXQU336pCW9eWpqr3deSsbytD3/WISLSBV7iLKZFeNDHzM+cZWzTH2EiO4ZH0gR4VdNlVWJSupqrQQULOsOFKa9wfVcDVY+WO1fgiqXbX+8Gfd9owjS+1BzyIWzGeKaU21QYJfAN9WSbLFchwB5tYDsyJeE7B9u19NTjcGMN9mZgxCxbuinhKHMDP7teOrVLnyVeix+Mn2MlspCffRmYpAj3ObGaklga7imzG7JhZevosazQiDbiS4YJqzk23qlDHtXdriHMcI9/1po1nlkpswS/Mdgv+PCwMApM9kyCWGZhYJcNn2IhojvdGzstCPT6Z9JygK3ewctQQJmCwy54nNVVF9wcfaho22LZwB3Yj22KVM8guhQk00+zXKc153PqAy4BEBSDxYuZ7bNZnKNQUfbj3IlhgZuZ7GGtaH+LH6hRDD6tPUoycdBv92zDSNlpmzJBHe/IX7jvRSKqSd1ujKZZGxhKsL8/tYCdigd6nxH8nec5dwlxUNvBdH18NOrJ1v5riuEer0sOiuZhqtkj6DPQ3HehiaLh9RHLsNSO4DXXxzox+wonXeXkwPSToSlfBMLvaaj4J+cedVjhcOc7j2mtiYJH8uaPpSrNJcoZulZYe4IoUujH7jy/WL3IzP0OxzEgl54lKcupNKZOBvqDNSKMJtb9U/DyFev2MBiHxYlXqUbTvfSTHs0Anp2aMIWZp6UqTwqT6G/uuR+IYuXAfSrSfvWB/A0YuhBgdRyR/G2ZcKPLvx6oLvNaclwfXM4KuNLvsNocaGhwhGqUrx56utoaGqNYoeV+9TxY5N81SSV7XbWtTA/3zyR2B0wPThmn8pOFK89z2SiXwH2/hpFldKVJ+68eivUrhLdQBLty/A+3TjD9q/89RuD/meH/BBwqcwgn1HkUz85Usf2ORXPGK5H2z/j21q6R8rHK8tvgeG7rf79/OlRqk7n/j7r/vNnc7Iymp/v9OdcFmdIyeiAT7XMY7HS7Yd2I0f7/hHmM0HXBK+aygJ2JGXpNwJ1zmH5sMfq+axf/7Odi6bb/1o201n2hvrUPdjx3DNb58eIB2xuTcNEsl2q8dXwz22p/Fr4EJIvk8ektkemGgfQbabkWmij+zvhfCzWYHu53MekTQlTNsuNKcx9UU6o80d7gKbQ7VhgzMgjN6NTE+b677QO3crx1b3amSacM0ftIslficNHnNXtnGakq554b7oGbzW5jvdwDtOlFzHWjTaj7RDs8BNXespky6VfI+OLoP1G1+7UpyXWmfTZ++rx2d7YKv6Qom3GsdKmAIdgJo9MTQyPsaSfpMtH1Y7QwXaAAAIABJREFULZqTt3DtjVw5CtVfJGMxk9FxJ1dAka6CmwerYev7OuLeklZ4q8aX3qqCzr+3Bh3xGa/reGJv+KQzMGurPa6morGy29N1yuskKpnSkHsi/8+KWWmT0VzciEW4Cy2B2ofrK5bZpUCvaaCANtaLWua+ruG+V7sXzkgrnaUpnhvugElGvuvb5PW927XeK+emWRp/s3wCL8+5g/eFmrTCsSpI269TbV3HjnBrugzLG6sptuPau3W/2jznNqXD1JQkRbyikTzfB12MXhz13tZTGZnNTlY9IOhKXK5zpCeT/qLOHc0drkJbg4782WttWttJ1TYOV8kgu3S2QW21n2hHreQToPkvXm3zLMwPfQDtTMv0voJ19rhqnbd6nZTZVVLqeo192+3vPPmLVKiDQCJOdGO9SmXFeM3MP442RTBUMGzmcyZd0QiHTv15v8+WtobP1VY0XBk2BcxPSisc41qg73OFukENjVJJ0XDl1HrWZLiKFbXVRJct0JOYPcsZagbdXywpRPH6+zDrpMZo6k6gbZGkMgV6bRJ98mXke/XUn9/XKanbDLMPI9/1XkswvM+Bmk4eV9uk65STdtK1PW2YSorS1Vbzic9+2mr3u8YRMbtK/F7nbhk5PrNtDjU1OFRYlGkgnbLnicescKjjT6BjlefvwowsFDPTBmM9jkV7zDDznCoaSR90pRUOD19AI22YCmMooBFKLB+OaHNH09JtktK7HcwkSc50pcnck6K09HTJ5jsL1indJsnRmXPe9EXsr3Givwx7ErPyjyO9ChZoDOFOagiaulgapPuXlncLeExIG6aSIql2V/eLLU0nj6stb7jsuVLTWXUVKzKQPhRu1jjZPwNmzXJ6B1tWH9dimekyc2yRzHQFahvrxcxYHxuvi0iGvldNY1OGTUorulVTirrf23lBxpapNEWfEdRd/AtpmH3SbFbqrv/fppnnjt5jM7Jvo/cZ3a9n39EGVlZ9J0RzkcWsc6poJXnQ5V6nVXMgdAENC1NiEnciGeeDWRx/sytYnm6ixSOVNJYrurEId/AzI3XSDNHMJCfLCX4k6RtRf7a8Unw7r6C7r5J3l66C0uFSTZA037YGNTiHq9A9e54zKHyxIrMEeu8i+Ywly3tv5f6DnbRE+p1k9hiT6bgdzclSXDMq4vxbmJGuueqJzDxpNvviUSwXRWL9HIa7GBLs3/H6XrdqdqunSe6gKw4FNIyId+DV5nBKsiktTvPvbQ6HlBdmur/NoTa5r96d7Z0HdSPphVYcGOMpls9yuCtXRq/EJ+OBsyfMzkieWfAG1Ro4scq5yZ2KFLStQ6dONqiwdLByJNnzGlT7aXSzXOFmekJ9yQf7HMXr/UjEex9pgBlNWrBVIpnpigf/gNR7e7TMeF0Nfa+axqlWp5QTbgbN2aI22YOmIic7My80hPoO8/QRz8DLLKGOtbHMlkczhmCzkrGcfwQLHnuKpA66DP3QsWf9k4VXdyL9oMb8gXbnfRdOGqu2OMx2eRbVl9w8LMRVuQbV1jg0vuhWlTi8crZzx6pE+/1yuF0Hdv9F+vHWU06kA7Fy7NGmTkjmBJ9mnhgly0E3Xp+1bhdkvKqV+fzd5o5VSV6DjmwNkw589oyaNFYl5a71msHWZxo5BoZ6/uEeG+nJTjK992YK9DpH83p7+urtrLh6btbfsbHvVbN4LqCM1fjCELNdnrXhPoV3XIU0chp8z7VcQaPXerBexsiMWTQBStzPF2Vs5sqMgNKoQP3HejwKd7EunGQ5H0zioMvYDx17CmhYFZgE+qB6/m1Wv905dOrPn0g33xp+kaopXKmMJeVj/fLPfUu7ttV+oh2OsZriXWGpcb92fOrXXdtJ7a3K1JRSr/zyEGkWwf4Yjabi+c/AhLo/FKPphcnyxxvt84plf1LwA6qRA7qRA2c8v6zM6CfY4yN93YNXJPX6Ozy7X0caZ6mk8+cYHKrdtV8Zk8Z69eQueiN1Xxfa6L8I33UxJadIqj0Z+Fgb7BgYjtEvyWhOdpLlvQ/VR6SBoVmvc7jt/vs0OrZwj4n0u9GKlKpwz8fod4qnbWzjM/a9apqz+7Wjaqzv967U7bu36dP3tbfwVo33+kmXtppPtNdvPG21n+hIuvexpvekLxoJuLzbRvOdZOR80azvjmiOl0afV7R/B0b2ZzRAjWfwavW53VdumTrzHy0XLqijoyOmjgbm5MiMfjxcJyDO0OuaQlX8iZL/FGaoD7FHsJNPo/tC9EIdtCJ5XyK9P5r+rAgmzP4MBRu3FHmqQixji9ffhlVfOrF+3uIprfBWjbd/Hte1Jx6JfJ3MfO+T6f00m5UBbrSzCEbuM+O41Jvf197CqotmRtrEer4Y6Xii+XsJN65EBzRm/j32hL/5JA26un5XJtRVlUSeLABAjxflb+oBAIDIJGnQBQCwSs5Ns1SSJ1mW6gQAAHwk8ZouAIAVmj59XzsSPQgAAFLIVYkeAAAAAAD0ZgRdAAAAAGAhgi4AAAAAsBBBFwAAAABYiKALAAAAACxE0AUAAAAAFiLoAgAAAAAL8TtdPcIcDf7RwypI79pyvrJCxz72bdV/9r9r9GivRvXva9frL8ZniCkpT7PXlim/87ZTh361U9t2e7exadqqySrzflu2VmrTxrgNMqj5N/1ad+l9ffPTdxM9FAAAgF6NoCtS0xardFa2zryxVOdOxGeX2Q89rAId1MFlS9QerNHXf6nRo6VTv6rQmZNWj6dSI7IO6uDPAo+nW/Dn0auCQJumrSpT/ulDevn5xqCtSpZOVpmq9c6CWgVvZdZ4JqvsQujxeEwpfFV32ev0hy0EXAAAAFYj6Ep6jys3XzpfGSLgkpQ9skCqf9/ygMu4Uzq27J91PtHDsMrEPF2f7tShjaECnDyNHCLVb7U64IpQ3nItHibt27VM6xI9FgAAgBTAmq5kN+xa9Q/baI76Z8VhLOiSP0CZ4dpMtGlAPMYSkXv0culQOU++reeciR4LAABAakj6ma70hS+qqMBzqz1AWt83NfiFqRqoIG1ueFDFD16v5jc2Sd+dp8EZ7u2ntqtqzXte/YzVwGVe90tS62c6uvwNXe42Dmnwgy9qcIB2xvmv03Lo1K++Zd1M1bBVGn3f6K4AzhEkPfDrv9Skiq4n2n7wNR3ctFHS4xqxfJayO+8ZrdHLKwO0Myb7oUqN0PvadbTEa38WvwZGTCzU/fcVdwVUjmq9s8TCmao5ZVpUntd1O0i6YsnSClUM8dzyWjvmP970Mi1a2/W4buvH8v6nilSnP9TuMvVpAAAAILiv3DJ15j9aLlxQR0dHTB0NzMmRGf108QRBZ1TzxGo5PNsWfk2ta9wBzg0PqvjBG6X961X92/2SpL7ffV4jx/bXufcf15ltXW3SpK5t0xardNbgrttyB1VZBoInU9Z0uQKY/t6Bytd/qUkV2e6go3vhDB/ugEnB1k65GnUFMD59u+4NtC7LsxbLu0hH/9m/VPbBf/YJhIyt6TofMr0w+6FKjciXV/Dnfs4K3q/l5pRpUbnNpxhGydIKVXzVE3j5F87wc/qQXn7e2a1whg+vIC5vwWTNLXWqcsEhHZEUeF2WpxBHo2+7pXk68rx3MGhsTdf8m36tu9IPafWu1dph+IUBAABALJJ2pqvvd2drcEa7zrzhCbgkab/OrdnfeSv99huV1vqZjv62a9vl327SmRvmaXDJN3VmW9dMlneApW0ndG7WYPW3j5W0X9JYXZMlqbkhwtmq6PSffauyHQd9Z4Y+fl+nJj2s3NFzdObkRp352UadkTpnqNoDVCvUpm9p1yapc9asOVChijkaPKlA7Qdf8wmczm89qPb7ipU9TK7tw1ZpxOh0tR98zWc/7Zv+2TWOiBVohNdMmBSg4qLPbNtGna/+ngpGZ6u/ZDzoyhmlzaNyA9/XVqM39tRpk6GObJo2MU8tVb7VB49sqdaE+65VycRaNe5u1KYF7ucUIEDz2LakUtukzlmoiwGrFebp1lKb6rfudAdSkuTUtt2NKiu/ViVq1BFJeQvKVJbu1KFfHfJt93ytoWfla5KGpEvOL3YScAEAAMRR8gZdOf2l1s/UGnQ2yRUotZ34i1+gtF+tJ2ZLN9jVVzIYRO3Xuf87TYNnTVXpC1OjTBc0rv/AdCndNz2v08CC7ttiUqD0dKn/6Ic1afTD3e5NHyzppKTB2eovh04dNKuWeZwKaTQd1sztZnRkU3a6lFk62Sc9zyM7X9Lu7tuj5l7vlVleoUXl/nc6lTdROrJbys22SY5qHTFl39cr22ZGPwAAAIhE0gZdcbdttaq80hFHvvCiJO/URpMFW1NlkUjXXKWqlqqdemtt/CpMxPc3u/6q807JHq/dAQAAQFISB12Xm9qlggEhZqv268vmeUq74Wvqq/1ebcYq44b+0acKnnhD1U+oM/jKnCY5toV9VETazzmk/AjT6KJ2Sg6HlB1uBu3MebWroGvmq6cwLb3QqfMOKT/bJikOQddupy7eJw3IDb2/s+ed0pABypVMKOaxS6cdCzRu0GRNqd1FiiEAAECcJG3J+Mu/3a1zGqyiZQ+qb+fWsRq4sOu248gZKeNGFXx3bGeLzrVgH7ynmAwZoDS169Jpv+2nL6pN/ZX1tbEBH2ZE+6ZPdF4FGvGjVQbKwcdqo87sOiXlz9Lo2XOCNzu5RKfqpeyKf9fgYV2b+8/+pc9tyR00prvWgyVc02HN3L4t8H+GAy7Js55KQ8p0/4J45OA16pMqpzJLJyvU29K4tlr1ylPFqkJ11Ti0adpS79uS5FTjBUlDrlVJiL2ua6iTbDdoCmmGAAAAcZO0M13SezrzxGldWjbPneonecrBd85gbVutqtMPqvjBeSodO8+9MZqUQP+y81376lah8MQbqn5/sUpnee0z4jVgL+rYMmnE8ll+67osKpn+8T9rl36pSRV+67r8UhzPv16hg7P/XaPvq5RnXqz94Gs66Dee9k3f0rGBlRrh366npy9uPKSXVaZF5X7ruiwqG9+4dqfeWTBZc/3XdfmUjW/UpgU7NW3VZM1dW+ze5ioZ7z+eI8/vVN6qyapYW6EK97Zu6YuN/60azdK4onukT981+RkBAAAgkCQuGQ/AEnnL9V5prvbteoQfSAYAAIiDpE0vBGCRxmX6Q0Oaxk16Vc+QZggAAGA5gi4gBa379PuuwKvonkQPBQAAoNdL4jVdAKy07tPva12iBwEAAJACmOkCAAAAAAsRdAEAAACAhQi6AAAAAMBCSRl0DczJUZ8+LDcDAAAA0PMlZdAFAAAAAL0FQRcAAAAAWIigCwAAAAAslJJBV8ecvWqe87Tf1nm6/MBeXSpNyJBgiOs9ctw2z3ez/RdyLP69OhIzKAAAACCklAu6rtz2kVqH1ipj40/97lmvvntq1V6RyoGXTdNWVWjR0ryQrUqWVmjRqkKFbmW+jjk/lFN7lfbRet87Gn6gfnWFaiXwAgAAQBJKraCr9PdqGSPZ1n9bAWsjVn1bmQda1V7ByXuy6QyW3/xBwA9tn40/l62lUK3dZjABAACAxEqhoOtpXaoo1NUH1qlvQ/BWV320Lg4n72M1cNmLKl34TQv30YvYf6G2MRnqXxkkWJYkrVff/9yrq4femcIzlQAAAEhGX7ll6sx/tFy4oI6O2OZ2BubkyIx+zO6rU+nv1VwhZawOdeLu3TZHtvW3hQzQYnLDgyp+8EaltX6mo8vf0OUYuipZWqGKId23t1Tt1Ftrna4bEwt1/33FyvTc6ajWO0tq1RjoPj/1Wyu1aWOeZq8tU36QNj77kqQ5ZVpU7pWAePqQXn6+0e9+qXJBtfJWTVZZepB2cs1ytRQdVWaQWS5vHXP2qvWrew21BQAAAOIhZX6BuGN4odSy19iJeFWV+lfcqSt2SVYFXSfeUPUT39TgF6Zq5AvP68wbS3XuROTduAKuRlUuOKQjUmcAJe8gaE6ZFpXbdOhXldq2u+txc1fJFXjtrtVbu2vlWtM1WWUXugc+UqM2Lajs2udXvYI2P3kLJmtuqVOVCypdY3L3u2ipf795qlibp5aqnXp5rdM99jLNnlOpTRs9beapoyhDuvC5ofeuz/FaqSJHV5RS07gAAABIYikSdM3Tla9KV9fsNHgi/ldd1SI5hz+tflX+BTdC6/vd5zVybP/Ad57arqo173lteE9nnnhPLQtfVNGDL6rf+4/rzLZI9mZT3lclnf6bO7iRtLtRf51TrLJsmySnJJumTXQFNp6AS5KObKnWhPuuVcnEWjXu7tZxDPJ0a6lN9Vt3do1JTm3b3aiy8mtVokav7Z5ZNM/Ynbp4nzQg1zN2SbpeVzKl/nsMvg8NTbpa49VRKvWpMuHpAAAAADFKkaDLdeIeD5d/u1RVv43sMY41j+vod5/XyFkvamCJf2AWilONFyQN8QpmJubp+nSpfrdnRsmm7HQps3SyFq3t3kN2viQzg66JNg2QlFleoUXl3cebN1E6srvr9vl67/u7ZtM62a9Th1LmgwoAAIBeKEXOZV0zV5G6+vxfzR9KAOkLX1RRgXQu4pku6ex5pzQkTxVrK1Th3tZStdMrPa9rm8+aK4v5zGDFouHzKD6krbrKqrRQAAAAIEIpEnSt11UXfqi/F03WlY/WG0gxdM2M9WlaH7alv8jSC8dq4LJ5GpzRHuWaLk8qX6gAx6nzDik/2ztlz0IBUwRjEWGqpz1Hf1eT+hF0AQAAIEmkSNDlKbAwUh12ha9IWFqqdrXKFsWJu+H0Qu/qhU/EVr0wdIDjWU9VpvsXhJvtCpCuGIBrdi3YerBGfVLl1NzSyX4FMaK1Xn1q5ktjSg2lGYYrmDLlkVWaXiA5Drymn22ojnVwAAAAQFipUzJeT+vS4jvVXvcfytoYasZkni4/8EM5L4RrFwv3DFdzJOu3gvAvze7h8KsuGKidfxtJnRUM07u2BJpJ8y9T75++6KpgaPN9kHc5+M6Kir4FPgKy/0KOeeOlAz9X+kchZh/d7fpUjle/IEU0iu5+RvePyZBUpy1PrdGOMLsGAAAAYpVCQZcM/f7Wlds+UsuYJmO/55Vo7vLwF/2DokBl43u48O+L0WC5XA+tmKn81gN6a+U7qrFmuAAAAECn1Popo6pvK6MuQ855H+myPcD9pb9Xy5gM9a/sAQGXJOUPCPyDxu7tF8/2joBLkq76aJ1sLYVqXfx7BQrFO+b8UM7MWmWEmZ0suvsW5Uuq30XABQAAgPhIrZkut445e9Uq/xkR10zJlT3BU9OSUcA0PjmNpe31OK736HKNX5qh/RdyzMtRv1Czk8Vz9aP5Y5SuVlWte04s5wIAAEC8pGTQBQAAAADxklrphQAAAAAQZwRdAAAAAGAhgi4AAAAAsFCPKNLXU/S3j0n0EBKuveFAoocAAAAAJBVmugAAAADAQgRdAAAAAGAhgi4AAAAAsFCKBl12lZTPUklurG2SR/+8HE0YNUgT8vsleigAAAAAvKRk0JVWOFw5zuOqPRtbm3jIyh+kCTekq39ihwEAAAAgSilYvTBdOfZ0tTU0qC2mNsmlvbFJexoTPQoAAAAA/lJvpit3uAptDaqtdcTWBgAAAAAMSLmZrpxBdqlxv5pibBPSgK9qQoHX2qovHfr0hEPtPvdLJw5fUs6oryrLvbm9sUmfNnZI6qcbvLZL6bppVHrnra52rrVcN+X1CXifuWPy6KPrbsjRkGsUvC8AAAAAnVIr6EobpsI8qamqIbY2IbiCIOn0iS/0+ZeSJ0i5aVQfnTh8Qc2dLfvphlH91HzqC+25KHfQk6MbLn2hExcv6cThLyS51nTd0C94UNOVVugK1AKV0YhsTH10+sQXOvGl53Ff1XUtTe7HSVn5ORoihz49TJAFAAAAGJFS6YVp9uuUFq6AhoE2wfXTkLw+am+80BmkSB36/JRD7eqnnAG+rZtPfaETF903Ljp0+kspK9Ps6oORjKlDp090BVjtLZfUrj6ydc5q9VH/fpIudRBwAQAAAAalUNBlV2FRuOIYRtqEcE0f9VOHzrX4pfd9eUnnvpT69fOeWOyQ80v53G6/JKlfH3MrFUY0pnA69HnDJSnzq67y9FRVBAAAAMJKnfTC3MHKUYOOhCygYaCN1ZJ9FuniBe05LOmadN10g2et2SW/NEUAAAAAHikz0+UqjnHGQAGN0G1C+rJDl9RHAzP9Ytlr+mngNdKlSwEKXHRype61fxmqTbzHFKpfhz49/IX2nAicOgkAAADAJTWCrrRhKsxzqPZkuAIaYdqEdUlNLVL/vK/qOq91UNcVpKv/lw6dvhj8kVn5ORpyzSWd9qs8eOnLDumafsq6JsgDLRyTIdf0Uf9uqZIAAAAAPFIivdBVHONzNYVYqGWkjRHN9V/o0y9zdNMNgzTEs7HlgvbUX/Jr2UdDvNt8GbgiYHtjk05cM0g3eLX1LuOelT9IN2R6PSAvRxPyJO+UP+NjCse/lL3kX3wDAAAAgK8UCLrcxTFqDBTQCNnGuK4y7qEYD1aa67/QnvrI74toTJ61Wt7cgWCXrlL2AAAAAIzp/emF7uIYtQYKaIRsAwAAAABR6P0zXWf3a8dWE9oAAAAAQBR6f9CVjAKl8gEAAADolXp/eiEAAAAAJBBBFwAAAABYiKALAAAAACzEmi4TtTccSPQQAAAAACQZZroAAAAAwEIEXQAAAABgIYIuAAAAALBQyq3p6pizV61DJalWGau/nXovAAAAAIC4SqmY48ptH6l1KMEWAAAAgPhJofTCeeooytDVB94j4AIAAAAQNykUdAEAAABA/BF0AQAAAICFCLoAAAAAwEKpE3TZJ+tyZqv6Hlmf6JEAAAAASCG9v6aE/RdyzBuvv7fsVebq21IoygQAAACQDHp/DNLwA6WvHq+s/5TaFu/VpdJEDwgAAABAKun9QZdHw071bZE6cuYleiQAAAAAUkjqBF0AAAAAkAAEXQAAAABgIYIuAAAAALBQCgVd63XVBenvY76pjkQPBQAAAEDKSKGgS+qz8eeytRSqdfFeNS/+PcEXAAAAAMv1/t/p8rFefd9cr76JHgYAAACAlJFSM10AAAAAEG8EXQAAAABgoV4ddA3MyVGfPimWQQkAAAAgqfTqoAsAAAAAEo2gCwAAAAAsRNAFAAAAABZiwVMEhn/vKT06LqPz9sV9b2rpb04mcEQAAAAAkh1BVwSO/2aFHv2NJE3T4y/N0MBED8h0YzVw2TwNbt6uqjXvJXowAAAAQK9AeiEAAAAAWIigCwAAAAAsRHqhFaYv0CvfKPDacEp/fGytPvDcHPEdPf/IaA3o9sBW7Xt1hd4+Nkz3PvuAxumgXvnJ73Tcq4VrXVmzb3+Siu5+RvePyZDjwGv62YbqyMZ7w4MqfvBGpXluZ0xV6QtTO+8+9/7jOrNN8qQfZp1Yr+qGaSqdNdjdol1n3liqcye62vinKKYvfFFFWZ/p6PI3dDnYflv97gcAAAB6AYIus434jp4fdVSPPrbWvcEVQN3x7HdU6wmgjv1OSx/7ndeDXGvE9KcVevuYJJ3U25+c0rhvDNOkEdLxY+rsa9LwDF3c9zufgCtmJ95Q9ROS0TVdaWPnqVRnVPPE43LIHVB990G1RhIwTVus0lnZOvPG46o+4dqUvvBFjVz2IIEXAAAAehXSC8127Hda+vI2rw0ntet4qzQgW4VBHnL7ohkqrPtQL27x2rjlqGqVoXGzpnVtmz5D4wa06vi+7hUTazY8p2VPLYl8lisarZ/p6BOr5XDfvNzULmUMUF/DHYzVwP9vsNr2b3LPjrk4PvhMbRnXK+MGc4cLAAAAJBIzXRa4fdFK3THUf2tz4MbTF+iOoaf0x8e2+d2xTX/cN0mPjhup27VNH0i6fVSBVPehezYsgZobfGaiLv92qap+G0kHQ9Qvwz1jNnZet3vbh0g60f1RAAAAQE9E0GUyV8DlWZvl2uZahxWo9TQ9/o0C1f7pyYDpgsf3ndTFcaNVMl36YMs0lQxt1b5X/YOznqtt/3pV/3Z/oocBAAAAWIr0QlMN06AsSXW7DMxGDdO9z87QwH1v+qYVejv2O31cJxWOmiZNH6lCQ/32BKd1qVVKyxmS6IEAAAAAliPoMtVJfdEsKStPw91bXLNcGd1aDv/edzROB/X2b7qvz/L2weFT0tAZeuUbBao9HHyWq+juZ7R8xSr96O7iGMa/X182Syq4Qemx9pFl71zjlb7wRRUV+LY593/PSAVTVfzdseG7LJ6rH61YpeUrFmpK1OMCAAAAEoP0wgh0W6s17gG9Mk7yLgn/wcsfquSlGXr0pdGuNhcP6pU/ZevRb3g9bsR3dO+4DEmju9q5Xdz3ppZ6B2JbPtS+W13l4/8YbEbMRI4163Vm2TwVvfBi57aukvFG+9iucy9M1Uh3H2371+to02yN9C6QsW21qrRYpbP81nUFKhtf3aBmSekaqpvvLtaOeBQLAQAAAEzylVumzvxHy4UL6ujoiKmjgTk5MqMfM/syc0yJ4yo5P/y4XzCWYjy/Q1b/4RK9vj3RowEAAACMI70wyd2+6AFDaYi9W7mmj8mQWg9oCwEXAAAAehjSC5OS68eSCyVXeqLnR5VT0JRHVml6gaRTm7Xs1a2JHg4AAAAQMdILAQAAAMBCpBcCAAAAgIUIugAAAADAQgRdAAAAAGAhgi4AAAAAsBBBFwAAAABYiKALAAAAACxE0AUAAAAAFuLHkRNh+gK98o0s7Xt1hd4+Zn73ty9aqTuyIv1RZa8fZJYkndIfH1urD8wfnqWK7n5G94/JiOrHlKc8skrTsw7orZXvqMai8QEAACD1EHTBbZtefGybJGn4957So+MSPBwAAACglyDoQq9Ss+E5LduQ6FEAAAAAXVjTBQAAAAAWYqYrQq7UuwyvLa0B12bdvmil7hgaqk2zvjjmu46q9k9P6sUtofoJ3Ma1RqzAd9tFvz781ni5nkdzVOu2wo1p+Pee0qNR2I2gAAAgAElEQVTDT+qVnzTqDq/nd3Hfm1r6m5O+nU1dqOUzhka1BsulXA+tmKl8v62OA6/pZxuqfbZ1rvfyCLTP5gbVeMYkSWpV1brn5NcVAAAAYBhBVySmL9Cj46R9rz4ZogDGMN377AMaN8C7EMUw3bvoOxp+zLuwRYHueClL+159Ui8ecwcq33hK99Z7gjN3P80f6lH3WiuN+I6ef2SlHldXkONZf+U9JleQZcULYGxMkqQBo/XoS66A7NEtcgeG39G9+8wuHrJVrz/lHTi5gjD/pz/lkVWaXlCnLU89px1e7ZY/afctnFEwU8uzDuitp9aoxvO4u+fqLxTXAAAAQJRIL4zAcHuWXDNUIdp87zsaN6BV+171nkE6qbdf9q8k6Dv7dXzfSV1UhgZ6pmymz3AFbi9v63rIsd/p4zqpcNQ094ZpumNchi7u+50lVRC7MTQmj1ZXQOkJxOrP+z4/j+1rtOypJVHOchlUPFc3F0j1H65xB1yStFWvf1gnZRTra8Xew/atXrhjywE5/NsAAAAAEWCmKwLHf7NLteNm6I6XVuqOIGmFhbkZ0sWD2hVjEOQK8DLc+/JzMU/DJR0fkaeBatXxfSe7d2ABQ2Pq3OAXnB77nZY+9jvrBxnIkGylq05/3u63fftnqp8xU1lDJAVLH6xuULPGhG4DAAAAhEDQFRFPWXV3mt0jKzVOQdZZmSIZfysrGcdkoWK7XPObAAAAQHRIL4zKSb39kyf16GNvat9F39S62rOt0oBsrx8Zjs7xhmZJWRo0IlxL/5S9YRpkyXquSMaUZE6fl0NDNWKq3/apNypfrWo+HeKxQ7KVHq4NAAAAEAJBV0wKNHCAdPHsqc4tx3+zS7Uq0B3PfkfDO7e6C2lE0vWWD7XvYobGPbJAtwdrc2yfjl+UCm/19O0p4uHbzD8Q7F6B0cQxRWrqQi1fsUrLHyk3q8fuqveoplXKn7FQUzo3luuhGUOlU/8VojJhiDbFc/WjFau0fIV3nwAAAEB3pBdGwL9UuhSoDPo2vfjYKd377AN69KXR7m2u9V++hTTCOam3f/Km9OwD3dZQdaUzntTbP/lQA1+a0bmv2j89qVfsT+lRrwjv+G9+p33Dvfqp+1CP/mmkXvmGV6cjvqPnHxmtrnita+1W13M0MqZkVK0NK5eo8ZFVmr5ilaa7tzoOvKZlXtFU/blWqWCM7l8xpnObf5uuLhvULCldQ3Xz3cXaQU15AAAABPGVW6bO/EfLhQvq6OiIqaOBOTkyox8z+zJzTOgpXKXg9eESve5fOMNknt/9qo/DvgAAANBzkV6IHq3o7mf00FTv27coX3U6ZnkQVK7pYzKk1gPaQsAFAACAEEgvRI9Ws+EdNT+5SstneLbUactT3r/HZT7XDy1LOrXZ2t8XAwAAQK9AeiEAAAAAWIj0QgAAAACwEEEXAAAAAFiIoAsAAAAALNSrC2mca2pK9BAAAAAApDhmugAAAADAQgRdAAAAAGAhgi4AAAAAsFCvXtPl0TFnr1qHSlKtMlZ/OzWeNAAAAICkkBIzXX02jlfW6vHKqCtU6wO/0JVEDwgAAABAykiJoMujzyd7dXXmSHXYEz0SAAAAAKkipYIuAAAAAIg3gi4AAAAAsBBBFwAAAABYKLWCroad6tuSIeetTyd6JAAAAABSRGoFXVqvvm+OV+b529S8eK8ct81L9IAAAAAA9HIp9pNVT+vS4jvVceDnylq9PtGDAQAAAJACUmumy36dOtSqvkcIuAAAAADER2oFXQAAAAAQZwRdAAAAAGAhgi4AAAAAsFBKBV1XSkbq72rSVQ2JHgkAAACAVJES1Qs75uxV61BJapVt/bdT40kDAAAASAopEX/02TheWYkeBAAAAICUlFLphQAAAAAQbwRdAAAAAGAhgi4AAAAAsFBSruk619SU6CEAAAAAgCmY6QIAAAAACxF0AQAAAICFCLoAAAAAwEJJHXTNv+nXerdwUqKHAQAAAABRS+qga13NIWnYAgIvAAAAAD1WUgddcq7WPVV1sg27V8/YEj0YAAAAAIhccgddktS4TH9oSNO40sWakuixAAAAAECEkj/okivN0Gkr07fygrWYpsdfWqlXXlqg2+M5MAAAAAAIo0cEXXLu1GdOyW5jbRcAAACAnqVPogdgzC6ddizQuEGTNaV2l3Z0u3+bXnxsWwLGBQAAAACh9YyZLgAAAADooXpW0OX4PMAsFwAAAAAkrx4SdE3SkHTJ6fhrogcCAAAAABHpGWu6bJN1o01qcO4K0mCaHn9phgrVqn2vrtDbx+I6OgAAAAAIqkfMdM0vKpPNeUj/3hisxSmduyhJGRo+blj8BgYAAAAAYSR/0JW3XHfZ27SvanWI9Vwn9fYnp+I4KAAAAAAwJrmDLttivVs6VM6Tb+s5Z6iGw3TvrQWSTunj35yM0+AAAAAAILyv3DJ15j9aLlxQR0dHTB0NzMlRuH7+4KjXiH98Kf0jpl0BAJAU6q+6Wv8rvUBf6iuJHgoAIInFrZDGW22fq+Wqq3TvNYO153/0j9duAQCwxOArf9f/vtysjc56/S9bQaKHAwBIYnFLL7y5o00r++UQcAEAeoUzV12tZ/vlqvj//T3RQwEAJLm4ruk6etU18dwdAACWcqUVkjMPAAgtuQtpAAAAAEAP1zN+HDnB+tvHJHoICdfecCDRQwAAAAB6JGa6AAAAAMBCBF0AAAAAYCGCLgAAAACwUPKv6coZpc2jcqW2Gr2xp06bgjbM1etTR6nrl1LadHDPbv24Lcr95i3Xe6XSH7Ys07tRdmGOr8s+/w5dmya17HpCtX9J6GAiUnT3M7p/TIZ0arOWvbo10cPpZsojqzQ964DeWvmOarzvmLpQy2cMlVoD3JcA82/6tSoca3VP7S5T+7zLLkl1+sOWZVpnWs8AAADwl/xBlyFp+tcJo1Rw9rBmHjkbe3e2xXq3dKhqqr6vdZKs+WUxdzB1cY8ObtxoyR6QWEGDugitqzmkikkL9K5kSuA1pfBV3WUn2AIAAIiX5A+6mg5r5vYwbdJyVZzWpoOHTQi4dI9enlQmnVyrRY0mdBezj9Ww7mM1JHoYUajZ8JyWbUj0KKKwfY2WhfvMxZNzte6pWq73Su/VM4279Jwzls4macqgNDlP/h8CLgAAgDjpHWu60jKUblJX82+apSLnIb1qYioXELPGZfpDQ5rGlS7WlESPBQAAABFJ3pkuz1ouD7NSB0O6R6V2qaZqtXYEa/K1f9HoSXldt9uqdXTd67rkc79Uu+avyl44QZnuzZeO/VFHKz+W8h/SyDuL1c/TPm2CRi+c0Nld17qtrrVcLu3623/8RA313YfUr+JZjRzhlQT5hW/KYuacF1SoPTpYe73X2AP1N0eFXmMO1JcRnWu53BwHXtPPNlR3NZi6UMtnSFs+lKbPGCqpTlue+kwjVsxUvlpVte45bagu10MrZkofbpZmzFS+pPoPl+jYyFWaXtC9zymPuLZ71H+4RK/7z1Z51mp5aw1xf9C1aK6x5Xtt6dqf/31jdP+Krt95C/xaGNmnJ82wTN/Kk3YkxSwsAAAAjEjeoKszrTBN/zphokZ3a+BfOEMaPWGaNntuRBOk5f1PFalN+4Kkb7mCG+lv//GEO1hxBUYjF/6Latf8m1q6OlLhwjy17HpCB/8idyB2hwrPf6zav7yuo2u6Hht8TZdXWuHX/kWjJ2UEaOMOqAY1qnbNT9z7dwVOo+dn+waDgyZo9IBqHV3zb7rk2XfFQ2rpbPN12edPUGYUQZa/rrRCVwCSFbDVUE2fdEBvPfWZpq+4RTc/eYtq1r2m5rsfVun0cnnikvwZt6hq3RIdm75KN096RjdXv6a3zs3V/WNmasqGNdqhYt395MMqbd6sZU+5g5XiufrR/FV6SF2BlysQlKrWLens27XmymtInWmF7j4DjrtYdz95o449tUSvy6vvGc/o7tPPaUP1Vr3uHke4NV2uMZ3XlqeWuIN8136XP6LAgZdzpz5zlulG2yRJzMQCAAD0FD04vfCsHtq+TTO3b9PMw2flqlbovr19W1SzYlNsuZLzhHYEDLrm6NoR/XXp2Fav2aGP1VBZrUvKU/bXfFv7VBr8yx79rU3KLJwT8ZhCyn9I1w6SWnZ5B3wbVburUUobrEzvqRifGbmP1VLfLqUN0DWdDfKUliZdaonfFEr9Lk8wkqH05v+S9wRQp1Nd29MzzuvP/o2mzlRpRp22eAcp1e/oz6ek/JHl7g3lmj4mQ44D7wTeR0SqtWHlGp+Z0JoD1XIoQ1lDIunHNab6D737qtaGXXVSwY1BUgh36bRDsg2aHH2KoW2ybrS16bNGgjYAAIB4Sd6ZrgQYlp4W/M78bF2jdjUf/dh3e/1RNbcVKyv765I897WrzSd2+ViXLt4hDchWP6lr9ilWeQPUT436m38Z+b/8VS2TJigtT1KAdMTANupvx27SyBF3aPSIO6JKK4xMq5pPd91ynKsL2Mpne+v5bk+nKDdbUoamr1il6d12YVeRpJpiu7LUqpoDMUdcLoHSFCU1R9JHsV1ZktJnrNLyGf53tiqvWJJJw5Xkqsg5qUw25yGt3vJI8PRZAAAAmI6gy8tJR5tMq8gRyMXz5gVcFrhU+RMdrJQ7ndG91sw9Q9ae6MGFVKctT62JTyDhDrh81mYVz9WP5o8J/bggAq49C8fxeeTP1bla92yRK/ia/mt9q+r7SVKdEwAAoPfrwemF5tvhPCvZbtAUW4A768/rS/VX1siv+27PH6msNOnL8x8HeJDH19VvgAWpe40XA6Y26mvXK7PbbFsE/vJvOrjmCR0MlKaYZGrOnpeU7ZoZCsk//a9YeYEXm4Xkmlmr657mGKnqBjVLysoNO3AvkzQkXXI6/hr9fp079ZlTstsmRd8HAAAAIkLQ5a3xv1WjNN2YF+iEdKPOfyH1G1Eue2cQ8nXZK4rVr626e4qfl8w5d+jatEb9rdI7MPtYly5KGnS9b7XASNQfVXOblDnpX7z6mKPCSXnSF58GrHQYiX7ZGZJadalbP+V6aMUqLV+xSg9NjW0fMdu+WVWtGSqdvzD4OqfqPapplfInzVWRpM5CGYFrk4TULchzz3IFmiCtP9cqZRTrawHjqq3acqBV6WMeNv4a2ibrRpvU4GQ9FgAAQE+StOmFs4dO1IOFXmus0kZp81TJVTBjt37cZsVe31VVwyzdNeyfNL92V7cfj23Z+ISOVjyrkXe+oGs9GwOufeqva73btFXr6JrXu6UWtmz8o/42/w4VLnyha1tnAY7u5ds7++zcp6vC4aU5L/j0cenYH3WwMtTMWwD+pewlSY1+VRnd3OuRgvEv364xD2v5GMmaNMBqbVj5mvTkw93WdXWl7lVrw8rNyloxs7N8e/2HS/RW7jO63ysg8i91r4yZWr5iptRZxl7S9jXaMnKVps9f5a5u2KqqdZuVNX9mt5HVbHhOWwZ6t/UtGV+z4Tm9pWd0v/+6riBl4+cXudZk/TtpgQAAAD3KV26ZOvMfLRcuqKOjI6aOBubkKFQ/n12s1o0DIkmlSpR79PL0WbKfXKt73D+Q3N8ewXodd3n3YL+p1VO1NxxI9BBSW95yvVeaq327HtFzQX7SwJhJembSAt34RdfnG0Bses73GwAgUUgv7OZdLaqqk23YAr1byLoXJAHbYr1bOlTOk2/HGHBJnWXnh/2T5psxNgAAAIRF0BVI4zJ9s6qOE1MkhflFZdJJ82am1n26VvucQ3XX9F/rvenL+YwDAABYjPRCAyJKL+ylSC8EgMB68vcbACA+mOkCAAAAAAsRdAEAAACAhZKyZHy4VMV4I7UOAAAAQLSY6QIAAAAACxF0AQAAAICFCLoAAAAAwEIpF3TlLZisRWsrtGhpXoSPtGnaqigeZ/+FHIs/0mW73/bS36v5gV/oSoSjAAAAANCzpFzQFV9P69K88dKBderb4HdX1XuyabxaCLwAAACAXi0pqxdaqXHtTr0clz3N0+UH7lR73X8o66P1Ae5fr75vXq8ri+9U223zlB6wDQAAAICejpkui1y5bb6cmbXK2PjTEK1+qn6Vtfr7mPnd0w8BAAAA9AopMNOVp9lry5Tvt7WlaqfeWuv02mLTtFWTVZbetaV+a6U2bfR73Hmn8hZM1txSm3tLoyoXHNIRn1bz1FGUoasPrAv/Ale9J9uEH8p569PqGzBAG6Z7n31A4wa0at+rK/T2sXAdAgAAAEgmKRB0NWrTgkqv264gbIBPG3dgdvqQXl7S6No0p0yLyit0f65vcJZZOllzTx/Sywsa5QnUKpbm6cjzjV3d2SfrcqbUp8lIyuB69amZLxVdpyti6hEAAADobTjHl5S3oFj5alSld+C08ZAqT0uZRXnyqVd4+pBe7mzn1LbdjdKQa1Xi3caeo7+rVn2qjO3/qqYmKXOkOgKmGJ7U2z95Uo8+xiwXAAAA0BMRdEnKzbZJp//mlyIoHTnWKKUPUG6oB9dfVItsypvYtelKTo4FowQAAADQExF0xSp/gDL9Nl3V1BRFR026yr+sPAAAAIAej6BL0tnzzu4pgpJKRuRJjos6G+Kxebk2SU417vba2NCkq1WojlJj+7+SkyO1NPFmAAAAAL0Q5/mSGvf/TS3KU8VSr9Vbc8pUMUSq312rxmAPnFiob5Ta1FJV7Zua2LBTfVuk9uFPG9i7q9KhLnwe5M0YpnufXalXXlqpx6cbez4AAAAAkkcKVC80YHet3trt1Oy1ZVq01rPRqUO/qtS23V23Gy9IGuLdJnBZ+c6KhGNu02X7T9U3VNpg6TflzGyV7T+D/Z7XSX3RLGmAVDhqmrRlW6TPDgAAAEACpWzQdfGs02+Lf2n57o48X9mt2EYwV320TraiUL+/JUlP61JFoa4+8POQgdkH7x/U1x8Z7VfmHgAAAEBP0OvTC/MWTNbsOd63XeXhj3abnTLbevX9z726euidap4TKM1wni4/cKfaW/Yq7aPQv+d1+6zRGqBW7XufWS4AAACgp+n1M12Naw/p/KoKLSrv3KLKBYcMz1jFpOEHSl//CznmBUgzLP2mnNqrzDd/EDTyHf69p/TouAxJp/THx9bqgzgMGQAAAIC5vnLL1Jn/aLlwQR0dHTF1NDAnR6H6+exitW4cUGxKXwAAJItIvt8AAKmp16cXAgAAAEAiEXQBAAAAgIUIugAAAADAQklZSONcU1OihwAAAAAApmCmCwAAAAAsRNAFAAAAABYi6AIAAAAACyXlmi5Jkm2x3p1UJpsk58m1uqd2l6W7mz10oh4sTOu87ajdrTl1bZbuMxLzb/q17rJLUp3+sGWZ1iV6QAAAAAAMSd6gy7la92yRO/haoJedu7So0brdbarbrU11kpSr16eOUrZ1u4rYlMJXdZedYAsAAADoiZI/vdC5WpUNUpH9nkSPJEEmacqgNDlP/h8CLgAAAKAHSv6gCwAAAAB6sORNLzTZYyXTdHtu1+1Th7fpoWh+DixnlDaPyvXZ1K2vtKHaOKFI6Z7bbTV6Y0+dNkWxOwAAAAA9WwoEXWn61wkTNdp5WDO3n3VvGqqNE6bp9UgDr7Sh2jgqN3TAljNKm0fZdHDPNv3YXYfjsZJpenCCJAIvAAAAIOX0iPTCdQ11kn2KnrFF8eCcIo1OO6sPjpzt2tZWp/86KxXYc4M/LpC0DKWrTeeDFjVM078W5cpR+2lnwCVJL9XWyJE2SOPTgj0uBNtk3Whr02eN1lZvBAAAAGCNnjHT1bhM39xyj16e/mu9F2HJ9Nk2m6Q03T51mm73v7MtTbMl47NPTTU62DZRoydM02YFSlG0KTtNSi+cqM2F3R+enSbJaBV6T8l85yGt3vKIdhgdIwAAAICk0iOCrimFr2rxsLP6w5bva1FUPZzVB9sP66WYR9KmH+/ZJsm9RmyUK/jy/00vU37jy7tk/vRf61tV37e0ZD4AAAAAa/SI9MJh6WlSw39HVTJ9k9MpySZ7NKl9Ibx0ZJtmbt+mD85K6fZczZYkOXW+TUpPjyYPMgjnTn3mlOy2Seb1CQAAACBuekTQFZOmGh1sS9PoCaP0mOmdp8luk+Rsc6cotunHNWel3FHaONTkKA8AAABAj9Qj0gtj06Yf79mtf50wsdu6Lu81Wf4l5dW5LqsrNXH20Il6sNAvmDp7WDO9i3Q0HdbMw6O0eZTfui7KxgMAAAApKQWCLsl7LVYwLx3ZFnbN16a63dpUZ2B3TYc1c7vhwQEAAADoxXpAeuE9KrVLTsdfEz2QBNml0w7JNuyfND/RQwEAAAAQseSd6fKUTJekhvf1zdrU/Z2qdZ+u1ZD0Bbpr+q91V4Ql8wEAAAAkVvIGXZ6S6ZC0S8/tSt2gEwAAAOjJekB6IQAAAAD0XARdAAAAAGAhgi4AAAAAsFBSBl0Dc3LUp0/yLjcDAAAAAKOSMuhKFVPKZyX08T1JuOfqfX9vel2CPZdkeI5WjyGS9zySxxl9TCT9hGob6XimlM8K+18s44lGrK8PAACpjumkOPM/UZlSPks7tr5v+T6992HkZCnYmCI50YqlD6tfE39mPK9I+gnXR6D74/FZMcLzHHdsfd/n30YeE0oyPLdoeV6LaN7XYP2F6idS4R7Tk197AAB6AoIuiwQ7yYnk5CZQH9GcHAU6IfQPwiIJyvzHEOhkMlQfyXqCF+vzCtSHPyMn3oHer2QIuAIFWJ5/hwu+jLy2kY7F7NfDyGxOuM+D923/tkYCMyvFeiElmtcHAAC4pGjQZVdJ+Vip6n0dORtLm+CCzVTE2kdvYWZQ1lOCvlhmOox8nqx4Xv5BRKj0Nu+Zr1DjCfU6GHmNPPsI9fwjeW1imVm06rOUTKl7yT7zCgBAT5CSQVda4XDlOI9rb4hgykibRAm1fsnoTEOwfuJ5EmVkTNEGYIk4IQy2b//XNtQYw80mxHsWzEjwF8n9Zo092OsWzexkPCUqvRAAACRWCgZd6cqxp6utoUFtMbUJLZJF/pGedPqfvIfbZ6T9hJNMi+rN3K9ZzytUOme41zpYYJYMswqxrssK9BwS/dxCpQf6344kPc9/1s+sVOF4M+P1AQAAqRh05Q5Xoa1BR2odsbUJI9Z0HLPS46w4KTJj7ZPRNpGI9eTdrOfl6SvaWZ1kDE68xxFMqNcmWEqg9/2xPjezXp9oUoOjndkMJplns8xInQYAINWkXNCVM8guNe5XU4xtrBbtLFSofryFu201M06OvU9mA/WZ6EX+kabmSaHf72SY+Yr2cxIuoDXj8xfp34z/58fMscQiWdaJJevrAwBAT5RaQVfaMBXmSU1VDbG16QUSuWYk1jQ1Tx+JKnJgVDQzXeHam10FMBLRFKMwo+9g+wvVV7jxhAtuI9mfGWLpP9Z1YsHSapPp9QEAoKdLqaArzX6d0pzHQ1YjNNImlHAnH2amDZqRjhXNGMxY+xQquDAjKIuGmWvVok0RTOY1M2Z9ds0Qa7EMsy86xBp0WBnQRoNCHgAAmCuFgi67CovS1VYTqjiGkTahmXny5N3eqhOvaFK8zFz7lEzMXKtmJEUw1BjCBaKJSDGMdZYtngGl2bNuRgLOYJ+XaGbxEh1gh8JMFwAAkUudoCt3sHIUroCGgTYJYtZJdrKcHMVjnUiiKsaFC5TNSJ00Kth6t2j7MbLdSFpaMgcW0a59CnbbqjElS8VHAAAQXsoEXT2lgIZHqGpv0Z7UBVoYn6gTKCPphbGeVCb6pD6WQDncLGe8C2oEm91IphkqK8cQSdXFWNeUGR1TojDTBQBA5FIj6EobpsI8h2p3hSugEaZNHAU6cTN73UhvS3uKlpXPK5p+/StOxpoqF+vnJtTjg90XzdrAWFIVEyXaNNJgrAymk+U1AwAgFaVE0OUqjvG5mkIs1DLSJlrRnkAZuYJu9CQtkhLasYikXHeo22aOyQzRPq9Y9ieF/72vcO+9Ga+fGX1Hkh4XTWXKQJ+nSIIXI7O/wYJgo/sIFwBH8r5GI5LqhaHaRPr6AAAA6Su3TJ35j5YLF9TR0RFTRwNzchSqn88uVuvGAcWm9BUZu0rKxyqt5hPtDbpWy0ib2FgZ0ER68htN2lM89hHs/mj6i+Rk26znFalQhToiTSeMd3AazQl2vF9rKz4DRvuIpWiO//ZwrP48JMuFj2QWyfcbACA19f6gK3esppRKR7aGWKtlpA0AAAEQdAEAwun96YVn92vHVhPaAAAAAEAUrkr0AAAAAACgNyPoAgAAAAALEXQBAAAAgIUIugAAAADAQgRdAAAAAGAhgi4AAAAAsBBBFwAAAABYiKALAAAAACzU+38c2ZBi3f3kwyrN8NxuVdW657ShOvwjpzyyStOzDuitle+oJknG1DvlafbaMuV33nbq0K92attu7zY2TVs1WWXpXVvqt1Zq08a4DdJ69l/IMW+k+q6/TX0bvLaX/l7NE5qU+eYPuJICAACQZAi6JEnV2rByiTZI0tSFWj4jO4o+3EGSggRg7n6NB05mjKm3sGnaqjLlnz6kl59vDNqqZOlklala7yyoVfBWZo1nssouBBtP9+DPI7Yg8GldmjdeOvBz34BLkqrek23CD9XywC8IvAAAAJIMQZdpqvWX6laVjinW14qlGr/AasrIoVLrAf0lZWeqYjAxT9enO3VoY6hQKk8jh0j1W60OuCIQJkiMzDxdfuBOtdf9h7I+Wh/g/vXq++b1urL4TrXdNk/pAdsAAAAgEbggbqKaA9VyKENFY4r97inXiALJUb3H5BTEFJE/QJnh2ky0aUA8xpIgV26bL2dmrTI2/jREq5+qX2Wt/j5mvi7b4zY0AAAAhJEiM13+66Ok+g+X6PXtUXQ1daGWzxjqu63V/f/qPappHaPS4gkqUnVXgDX1RuWrVVUHvKe5yvXQiplea5SiGZP7eTVv1rJXt3ZuDbjOrHiufjR/jDoz3lqtWIcWoYmFuv++4q6AylGtd5ZYOFM1p0yLym1AeOsAAAk5SURBVPO6bgeZiSpZWqGKIZ5bXmvH/MebXqZFa7seF1nqoCsF8fqanfqTyjS31Obe3qjKBYd0xKftPHUUZejqA+vC/8G60wydtz6tvgEDtGG699kHNG5Aq/a9ukJvHzM6XgAAAEQrBYIud3BzarOWrXQHJlMXavmMVfpR7mv6WQSVKYrufkb3j5Gq1i3pXJflCnA8LQKnGHZPLSzW3U/eqGNPLdHr3n3PeEZ3n7agWEbnejLfcd//pBIXeM0p06Jymw79qrKzGEbJ0grNXSV34OVfOEMqu69CZfe5b5w+pJefd3ZbO5VZXqFF5e4bXkFc3oLJmlvqVOWCSndA4wp6Fi31Drw8a7G8Ax+bpi0tVN7uWjXurtVbu2sVfk2XcZmlkzX39CG9vKBRnmIhFUvzdMS7X/tkXc6U+jQZSRlcrz4186Wi63RFTGUDAAAkg14fdBXdfYvyVactXjNB2r5GW0au0nT/GamQyjV9TIYcB14LGRTVHKiWY8wYV4phdbU6UwsPeKcWVmvDyjUBH5c1RJKpQVex7p40tNu4d2w5oJvnB15/FlTOKG0elRv4vrYavbGnTpsMdWTTtIl5aqnyrT54ZEu1Jtx3rUom1qpxd6M2Lah03dEZoPlXK5S2LanUNqlzFupiwNmmPN1aalP91p1eM0hObdvdqLLya1WiRh2RlLegTGXpTh361SHfds/XGnpW3QzxnQkLOIvlM9vWqKOnpfyv2pQndc342XP0d9WqX5Wx3V7V1CSNGakOu7oX3NBJvf2TJ/V2pM8FAAAAUev1QVf+wAzp1H9ph9/2HUfrNH1GtvIlY0FXsV1ZalXNgTARin+KYcDUQgVOU5TUbGQsERmqrAwpfczDWj6m+70RBXlNhzUzmpTMbmzKTnfN8vgGJS7Z+ZJ2d98eNfd6L59ZsE5O5U2UjuyWcrNtkqNaR8zat0mFNK7k5Ehqin08AAAASIheH3TFnyfF0BXQ5QeqWugOuBwHvNIb3WuurOKzryTRUrVTb611xm1/PfU3u65qiibgatJV3Wa5AAAAkAi9PuiqP9cqjblRU7TVZ7bLs86qPqLeMvxmhoqVl9W9lSdVcMTUcqlbaqFUlJstqU5/jksQVKfmVil/4FDFnLdoWnqhU+cdUn62TVIcgq7dTl28TxqQG3p/Z887pSEDlCslT9l5SWpo0tUar45SqY+BFMMrOTlSy1HWcwEAACSJXn9e5irjPlTTH/HKK5u6UNMLpPpdERSRqN6jmlYpf9JcFUkKVBGxW9sZM5UfICWx5ux5SdnK81SW968saFi1GpslZdndY3IX9ijwbbNhV51UMFM/utu/lH2Emg5r5vZtgf8zHHBJnvVUGlKm+xfYwjePWaM+qXIqs3SyZs8J0WptteqVp4pVheqqcegupOHT0qnGC5KGXKsSi0bso2Gn+rZI7cOfNtDYVelQFz4P8sc9TPc+u1KvvLRSj083d5gAAAAIrNfPdKn6Hf3sqQY9tGKmlq+Y6d7Y6lPJL1D59tL5q1QqSac85dirtWHlZmWtmKn7V7jSAOs/XKK3cp/R/d1iGU+KYYbUWt39B5E9hTw8+1CrqtZtVtb8mV6NjIxJ2vHqZo3wGpPjwGt669xc3zFtX6Nl/397dxMidRnHAfy7kgXuumFv0iHSFgohtMBDaqhZ9gK1EiixJYFRkL1QsUQQ2WXrkghG0HYIDyF1sKBSkGop8uAWLoSHtEPR+8vW1q66Q7Ut2MEKWXxp2Hl2ZtbP5zYz8Dw/5jJ85/k9v38eSs+NE+511XNs/Ov7szWL8uj1E+51FRob/3Pv3ry6cWnunHiva8Igizc27s11m5fmzt5/v8BjI+Mn1vPps3tz0ealWd27Oqv/ea9c++I/EwmvXpWxuc+cYDjGcRZ2pnLukbTuPNnzvL7IT8NJ2pP5V16X9H1QoF4AAI7XsmzlzUcPjYxkfHx8Ugudf8EFOdU6Bw9/ngXt/++k5XRrwZlnfcbufSSVkbcy56QPSH4qf3Svyfgnz6ft/VOMl7/ijjx7/1Vp//rdPLxV6ILJqub3DYAz07RvL4TpYXvO3rkvMy9dk+G1J2ozXJ+xe9fk90P7MutUgSvJTbdclfYcycBugQsAYCpM//ZCmC4GH0jb9hczuv4EbYYLO1PJvpz78gMn/Sfl8ruezMOLZyf5Jrse6807U1AyAADaCwFgUrQXAnA62gsBAAAKEroAAAAKEroAAAAKashBGr8ODdW7BAAAgJpw0gUAAFCQ0AUAAFCQ0AUAAFBQQ97pSpK0due1JYvSmqTyRW+6vuyvd0UAAABVa9yTrsqWdPXdnc7+/UnHxmy9qN4FAQAAVK9xQ9e/Klvy3mBy2dyuelcCAABQtcYPXQAAAE1M6AIAAChI6AIAACioKULXtsGvk7kr8nRrvSsBAACoTlOErvy8KZ19H+a8Ja/k7Rt6ck+96wEAAPifGvc5XcdZMf+ldHf8kjf77s6j9S4GAACgCk1x0tXRNisZPJBt9S4EAACgSk0RugAAAJqV0AUAAFCQ0AUAAFBQE4Suriycm1RGv6p3IQAAAFVr3OmFrd15bcmitCbJ4O50ftlf74oAAACq1rihq7IlXX31LgIAAGBymqC9EAAAoHkJXQAAAAXVrL3w16GhWi0FAAAwbTjpAgAAKEjoAgAAKEjoAgAAKKjmoatn80AO7hjIwR0/pqfWiwMAADSZmoeuTY8vzoJ1i/P6V99n7bbfsuG/T1pyTo7WejsAAICGVqy9cNPOy3J49nCWLz/2erSlJQ/++Vup7QBgyt0+djh/tOjUB+DUajYy/nRWtc3L7so3uW9sOA68AGh6Lcno0Rm5te2SelcCQIObstB1pGVGrm2bN1XbAQAANAQ9EQAAAAWVC117ZufAkeFcc9tosS0AAAAaXcGTrpnZcM/iPDc0mIM7BvLxE3+V2woAAKBBFbzTNZpdOz7LhQOLsmBdR7ltAAAAGli5k67lY7kwc3Kgf2axLQAAABqdQRoAAAAFCV0AAAAFCV0AAAAFFQtdG5YMpz2z8t2eUjsAAAA0vppPL+zZPJC185JkTj564eJsqvUGAAAATaRl2cqbjx4aGcn4+Hi9awEAAJh23OkCAAAoSOgCAAAo6Kwfvv+23jUAAABMW066AAAACvob+zEQCExISJoAAAAASUVORK5CYII=;" parent="1" vertex="1">
                    <mxGeometry x="-790" y="-1050" width="861" height="897" as="geometry"/>
                </mxCell>
                <mxCell id="3" value="&lt;div style=&quot;text-align: left;&quot;&gt;&lt;span style=&quot;font-size: 24px;&quot;&gt;&amp;nbsp; &amp;nbsp; 默认情况下，watch的回调只会在响应式数据发生改变时才执行。&lt;br&gt;&lt;/span&gt;&lt;/div&gt;&lt;div style=&quot;text-align: left;&quot;&gt;&lt;span style=&quot;font-size: 24px;&quot;&gt;&amp;nbsp; &amp;nbsp; 1、内部是将调度函数独立封装，在有选项immediate的时候立即执行副作用函数，一般是数据改变时才会执行副作用函数。&lt;/span&gt;&lt;/div&gt;" style="text;strokeColor=none;align=center;fillColor=none;html=1;verticalAlign=middle;whiteSpace=wrap;rounded=0;fontSize=14;fontColor=#FF3333;labelBackgroundColor=#FFFF00;" parent="1" vertex="1">
                    <mxGeometry x="144" y="-730" width="540" height="180" as="geometry"/>
                </mxCell>
            </root>
        </mxGraphModel>
    </diagram>
</mxfile>